{"glyphs":{"0":{"ha":1165,"x_min":0,"x_max":0,"o":"m 572 -21 b 1085 507 876 -21 1085 179 b 572 1032 1085 831 876 1032 b 63 507 278 1032 63 825 b 572 -21 63 179 278 -21 z m 572 832 b 843 507 746 832 843 733 b 572 179 843 293 746 179 b 304 507 415 179 304 293 b 572 832 304 732 415 832 z "},"1":{"ha":578,"x_min":0,"x_max":0,"o":"m 458 1017 l 303 1017 l 69 819 l 69 524 l 219 651 l 219 0 l 458 0 z "},"2":{"ha":1001,"x_min":0,"x_max":0,"o":"m 899 190 l 428 190 b 644 349 510 249 589 308 b 886 711 776 450 886 565 b 486 1032 886 865 758 1032 b 79 733 233 1032 111 836 l 311 681 b 486 840 315 694 357 840 b 649 711 561 840 649 811 b 504 504 649 651 635 599 l 275 333 l 104 204 l 104 0 l 899 0 z "},"3":{"ha":936,"x_min":0,"x_max":0,"o":"m 857 739 b 456 1038 857 878 750 1038 b 53 746 186 1038 83 846 l 265 685 b 456 847 271 713 304 847 b 618 739 564 847 618 799 b 338 601 618 619 514 608 l 338 426 b 618 279 524 428 618 407 b 456 169 618 219 564 169 b 265 333 315 169 269 319 l 53 274 b 456 -19 83 172 186 -19 b 788 100 558 -19 699 3 b 857 279 847 167 857 242 b 694 513 857 421 772 482 b 857 739 775 546 857 600 z "},"4":{"ha":1049,"x_min":0,"x_max":0,"o":"m 983 410 l 847 410 l 847 1017 l 669 1017 l 75 397 l 75 219 l 611 219 l 611 0 l 847 0 l 847 219 l 983 219 z m 611 656 l 611 410 l 383 410 z "},"5":{"ha":961,"x_min":0,"x_max":0,"o":"m 482 686 b 339 649 435 686 386 674 l 374 825 l 810 825 l 810 1017 l 181 1017 l 74 513 l 250 426 b 472 514 292 465 351 517 b 642 328 586 510 649 438 b 464 174 638 224 550 172 b 193 318 288 176 193 317 l 46 156 b 464 -19 126 68 244 -19 b 881 328 704 -19 881 121 b 482 686 881 553 732 686 z "},"6":{"ha":1013,"x_min":0,"x_max":0,"o":"m 528 697 b 493 693 514 697 503 694 b 756 1017 575 794 675 919 l 463 1017 b 113 556 336 863 149 628 b 68 367 81 494 68 429 b 492 -19 68 142 218 -19 b 925 340 844 -19 925 160 b 528 697 925 578 767 706 z m 304 339 b 499 513 304 450 390 513 b 693 339 607 513 693 450 b 499 167 693 229 607 167 b 304 339 390 167 304 229 z "},"7":{"ha":924,"x_min":0,"x_max":0,"o":"m 867 1017 l 43 1017 l 43 825 l 613 825 l 78 0 l 351 0 l 867 817 z "},"8":{"ha":969,"x_min":0,"x_max":0,"o":"m 857 740 b 475 1031 857 908 683 1031 b 94 740 267 1031 94 908 b 225 539 94 642 163 575 b 53 307 135 508 53 425 b 475 -19 53 86 243 -19 b 899 307 708 -19 899 86 b 732 538 899 422 821 503 b 857 740 804 572 857 639 z m 335 719 b 475 839 335 806 399 839 b 617 719 551 839 617 808 b 475 613 617 649 551 613 b 335 719 399 613 335 647 z m 475 172 b 292 307 376 172 292 210 b 475 444 292 394 376 444 b 660 307 576 444 660 392 b 475 172 660 210 576 172 z "},"9":{"ha":1025,"x_min":0,"x_max":0,"o":"m 481 319 b 515 324 494 319 506 322 b 253 0 433 222 333 97 l 546 0 b 896 461 672 154 860 389 b 940 650 926 522 940 588 b 517 1036 940 875 790 1036 b 83 676 164 1036 83 857 b 481 319 83 439 242 311 z m 704 678 b 510 504 704 567 618 504 b 315 678 401 504 315 567 b 510 850 315 788 401 850 b 704 678 618 850 704 788 z "}," ":{"ha":450,"x_min":0,"x_max":0,"o":""},"E":{"ha":1050,"x_min":0,"x_max":0,"o":"m 353 825 l 946 825 l 946 1015 l 115 1015 l 115 0 l 946 0 l 946 190 l 353 190 l 353 407 l 878 407 l 878 599 l 353 599 z "},"F":{"ha":1001,"x_min":0,"x_max":0,"o":"m 354 825 l 946 825 l 946 1015 l 115 1015 l 115 0 l 354 0 l 354 411 l 878 411 l 878 601 l 354 601 z "},"G":{"ha":1244,"x_min":0,"x_max":0,"o":"m 1161 590 l 617 590 l 617 400 l 942 400 l 942 318 b 649 179 893 239 767 179 b 289 508 451 179 289 301 b 649 836 289 732 451 836 b 951 683 775 836 885 771 l 1139 801 b 649 1033 1031 942 850 1033 b 60 508 325 1033 60 836 b 649 -18 60 179 325 -18 b 1161 247 868 -18 1074 89 z "},"H":{"ha":1233,"x_min":0,"x_max":0,"o":"m 1103 1015 l 867 1015 l 867 585 l 353 585 l 353 1015 l 117 1015 l 117 0 l 353 0 l 353 394 l 867 394 l 867 0 l 1103 0 z "},"I":{"ha":531,"x_min":0,"x_max":0,"o":"m 381 0 l 381 1015 l 144 1015 l 144 0 z "},"J":{"ha":950,"x_min":0,"x_max":0,"o":"m 828 1014 l 589 1014 l 589 364 b 401 175 589 293 567 175 b 232 288 308 175 258 236 l 17 203 b 401 -19 86 64 225 -19 b 828 364 657 -19 828 125 z "},"K":{"ha":1126,"x_min":0,"x_max":0,"o":"m 354 329 l 461 432 l 804 0 l 1094 0 l 624 585 l 1075 1015 l 782 1015 l 354 592 l 354 1015 l 117 1015 l 117 0 l 354 0 z "},"L":{"ha":957,"x_min":0,"x_max":0,"o":"m 929 190 l 354 190 l 354 1015 l 115 1015 l 115 0 l 929 0 z "},"M":{"ha":1496,"x_min":0,"x_max":0,"o":"m 28 0 l 269 0 l 407 515 l 742 -26 l 1078 515 l 1213 0 l 1454 0 l 1169 1051 l 742 399 l 317 1051 z "},"N":{"ha":1242,"x_min":0,"x_max":0,"o":"m 353 578 l 1110 -32 l 1110 1014 l 874 1014 l 874 428 l 117 1047 l 117 0 l 353 0 z "},"O":{"ha":1319,"x_min":0,"x_max":0,"o":"m 651 -19 b 1243 508 978 -19 1243 179 b 651 1035 1243 835 978 1035 b 61 508 325 1035 61 835 b 651 -19 61 179 325 -19 z m 651 835 b 1006 508 847 835 1006 732 b 651 179 1006 304 847 179 b 297 508 456 179 297 304 b 651 835 297 732 456 835 z "},"P":{"ha":1029,"x_min":0,"x_max":0,"o":"m 563 1015 l 117 1015 l 117 0 l 354 0 l 354 296 l 561 296 b 1006 651 856 296 1006 424 b 563 1015 1006 881 839 1015 z m 596 486 l 354 486 l 354 825 l 571 825 b 767 651 699 825 767 765 b 596 486 767 546 714 486 z "},"Q":{"ha":1319,"x_min":0,"x_max":0,"o":"m 1243 508 b 651 1035 1243 835 978 1035 b 61 508 325 1035 61 835 b 651 -19 61 179 325 -19 b 899 22 739 -19 824 -6 l 1074 -153 l 1233 -4 l 1090 139 b 1243 508 1185 229 1243 354 z m 297 508 b 651 835 297 732 456 835 b 1006 508 847 835 1006 732 b 651 179 1006 304 847 179 b 297 508 456 179 297 304 z "},"R":{"ha":1093,"x_min":0,"x_max":0,"o":"m 353 0 l 353 317 l 514 317 b 776 0 604 206 688 104 l 1061 0 b 776 340 972 108 871 231 b 1000 663 910 383 1000 483 b 604 1015 1000 900 840 1015 l 117 1015 l 117 0 z m 353 507 l 353 825 l 604 825 b 765 663 744 825 765 732 b 604 507 765 540 678 507 z "},"S":{"ha":1061,"x_min":0,"x_max":0,"o":"m 189 300 l 68 139 b 563 -19 169 58 325 -19 b 999 296 822 -19 999 71 b 538 624 999 579 733 589 b 319 732 438 642 319 633 b 508 832 319 832 439 832 b 824 733 615 832 729 796 l 951 894 b 518 1031 831 976 710 1031 b 82 724 324 1031 82 965 b 518 413 82 444 379 432 b 764 290 668 392 764 382 b 560 178 764 204 690 178 b 189 300 433 178 269 239 z "},"T":{"ha":971,"x_min":0,"x_max":0,"o":"m 942 825 l 942 1015 l 67 1015 l 67 825 l 386 825 l 386 0 l 624 0 l 624 825 z "},"U":{"ha":1231,"x_min":0,"x_max":0,"o":"m 608 -18 b 1099 394 906 -18 1099 135 l 1099 1014 l 861 1014 l 861 394 b 608 171 861 203 701 171 b 354 394 513 171 354 203 l 354 1014 l 117 1014 l 117 394 b 608 -18 117 135 311 -18 z "},"V":{"ha":1125,"x_min":0,"x_max":0,"o":"m 1118 1014 l 856 1014 l 561 453 l 268 1014 l 7 1014 l 561 -25 z "},"W":{"ha":1546,"x_min":0,"x_max":0,"o":"m 1521 1014 l 1267 1014 l 1053 488 l 765 1040 l 476 488 l 265 1014 l 11 1014 l 449 -37 l 765 565 l 1079 -37 z "},"X":{"ha":1176,"x_min":0,"x_max":0,"o":"m 443 503 l 18 0 l 317 0 l 592 338 l 865 0 l 1163 0 l 739 503 l 1169 1014 l 875 1014 l 592 664 l 307 1014 l 8 1014 z "},"Y":{"ha":1101,"x_min":0,"x_max":0,"o":"m 1101 1014 l 824 1014 l 547 604 l 275 1014 l -3 1014 l 429 385 l 429 0 l 667 0 l 667 385 z "},"Z":{"ha":1094,"x_min":0,"x_max":0,"o":"m 432 190 l 1079 1014 l 74 1014 l 74 824 l 643 824 l -1 0 l 1026 0 l 1026 190 z "},"A":{"ha":1207,"x_min":0,"x_max":0,"o":"m -4 0 l 257 0 l 340 156 l 851 156 l 939 0 l 1199 0 l 597 1047 z m 457 343 l 597 608 l 738 343 z "},"D":{"ha":1225,"x_min":0,"x_max":0,"o":"m 117 0 l 603 0 b 1142 508 901 0 1142 118 b 603 1015 1142 889 899 1015 l 117 1015 z m 354 190 l 354 824 l 569 824 b 901 507 718 824 901 797 b 569 190 901 217 719 190 z "},".":{"ha":321,"x_min":0,"x_max":0,"o":"m 283 100 b 158 211 283 160 242 211 b 36 100 78 211 36 160 b 158 -11 36 39 78 -11 b 283 100 242 -11 283 39 z "},",":{"ha":326,"x_min":0,"x_max":0,"o":"m 278 104 b 149 211 272 174 224 213 b 31 94 67 210 31 158 b 143 -11 31 38 63 -11 b 67 -150 131 -46 92 -114 l 171 -150 b 278 104 228 -82 286 7 z "},"?":{"ha":901,"x_min":0,"x_max":0,"o":"m 821 746 b 421 1042 821 956 660 1042 b -6 749 100 1042 19 817 l 213 685 b 421 833 236 751 279 833 b 582 732 574 833 582 771 b 482 624 582 693 556 658 b 250 288 335 553 250 433 l 483 288 b 597 465 483 382 511 424 b 821 746 692 510 821 558 z m 494 100 b 369 -11 494 25 436 -11 b 246 100 301 -11 246 25 b 369 211 246 174 301 211 b 494 100 436 211 494 174 z "},"!":{"ha":457,"x_min":0,"x_max":0,"o":"m 314 289 l 353 1014 l 99 1014 l 138 289 z m 350 100 b 225 -11 350 25 292 -11 b 101 100 157 -11 101 25 b 225 211 101 174 157 211 b 350 100 292 211 350 174 z "},"(":{"ha":617,"x_min":0,"x_max":0,"o":"m 476 857 b 571 928 501 881 532 901 l 433 1088 b 306 990 396 1064 343 1028 b 60 413 143 833 60 650 b 299 -156 60 176 139 -7 b 433 -262 336 -193 374 -222 l 571 -100 b 476 -31 536 -78 504 -54 b 299 413 358 81 299 233 b 476 857 299 592 358 746 z "},")":{"ha":560,"x_min":0,"x_max":0,"o":"m 94 857 b 272 413 213 746 272 592 b 94 -31 272 233 213 81 b 0 -100 68 -56 35 -78 l 138 -262 b 272 -156 197 -222 235 -193 b 511 413 426 -1 511 176 b 265 990 511 650 425 831 b 138 1088 228 1028 175 1064 l 0 928 b 94 857 39 901 69 881 z "},"[":{"ha":588,"x_min":0,"x_max":0,"o":"m 554 -310 l 554 -118 l 354 -118 l 354 956 l 554 956 l 554 1147 l 117 1147 l 117 -310 z "},"]":{"ha":524,"x_min":0,"x_max":0,"o":"m 7 -324 l 444 -324 l 444 1133 l 7 1133 l 7 942 l 207 942 l 207 -132 l 7 -132 z "},"+":{"ha":819,"x_min":0,"x_max":0,"o":"m 767 317 l 767 506 l 507 506 l 507 760 l 301 760 l 301 506 l 43 506 l 43 317 l 301 317 l 301 63 l 507 63 l 507 317 z "},"-":{"ha":590,"x_min":0,"x_max":0,"o":"m 508 306 l 508 494 l 67 494 l 67 306 z "},"÷":{"ha":883,"x_min":0,"x_max":0,"o":"m 546 747 b 435 647 546 679 494 647 b 324 747 374 647 324 679 b 435 847 324 811 371 847 b 546 747 494 847 546 814 z m 810 339 l 810 528 l 63 528 l 63 339 z m 546 121 b 435 21 546 53 494 21 b 324 121 374 21 324 53 b 435 221 324 188 374 221 b 546 121 494 221 546 188 z "},"=":{"ha":811,"x_min":0,"x_max":0,"o":"m 731 465 l 731 654 l 65 654 l 65 465 z m 731 138 l 731 326 l 65 326 l 65 138 z "},"*":{"ha":678,"x_min":0,"x_max":0,"o":"m 335 635 l 431 513 l 567 596 l 465 719 l 631 771 l 579 908 l 417 857 l 417 1013 l 250 1013 l 250 857 l 88 908 l 36 771 l 203 719 l 93 596 l 238 513 z "},"©":{"ha":1289,"x_min":0,"x_max":0,"o":"m 636 -17 b 1222 506 974 -17 1222 204 b 636 1026 1222 806 974 1026 b 51 506 300 1026 51 806 b 636 -17 51 204 300 -17 z m 636 911 b 1090 506 903 911 1090 744 b 636 99 1090 265 903 99 b 183 506 369 99 183 265 b 636 911 183 744 369 911 z m 903 376 l 793 417 b 638 344 757 374 711 344 b 456 504 526 344 456 401 b 638 663 456 606 526 663 b 799 582 714 663 761 629 l 908 625 b 638 771 850 715 768 771 b 338 504 457 771 338 667 b 638 233 338 340 457 233 b 903 376 761 233 844 290 z "},"@":{"ha":1321,"x_min":0,"x_max":0,"o":"m 1083 792 b 649 908 979 869 832 908 b 211 749 471 908 319 853 b 61 388 115 653 61 525 b 640 -144 61 54 269 -144 b 997 -42 860 -144 946 -90 l 900 56 b 638 -4 897 51 822 -4 b 239 388 308 -4 239 215 b 649 758 239 568 364 758 b 969 676 790 758 899 729 b 1071 436 1038 626 1071 542 b 979 228 1071 296 1042 214 b 939 313 943 236 939 282 l 939 661 l 763 661 l 763 639 b 631 667 728 656 683 667 b 322 376 446 667 322 550 b 629 83 322 196 438 83 b 828 147 713 83 781 107 b 933 86 854 121 893 94 b 996 79 953 81 975 79 b 1124 117 1043 79 1086 92 b 1250 436 1207 172 1250 279 b 1083 792 1250 589 1193 708 z m 763 349 b 629 229 758 258 696 229 b 508 376 576 229 508 260 b 631 525 508 435 531 525 b 763 413 744 525 758 460 z "},"&":{"ha":1068,"x_min":0,"x_max":0,"o":"m 847 -24 l 1010 115 l 860 257 b 997 456 903 308 950 378 l 822 551 b 714 390 822 549 768 458 l 583 511 b 747 647 656 550 714 590 b 781 768 769 686 781 729 b 476 1032 781 974 604 1032 b 300 986 415 1032 351 1017 b 168 797 229 943 182 874 b 251 551 157 711 188 625 b 174 500 229 536 193 514 b 69 132 81 429 -1 286 b 704 106 168 -82 518 -64 z m 388 776 b 475 854 396 831 436 854 b 560 772 518 854 560 828 b 442 647 560 701 494 669 b 388 776 408 682 381 731 z m 376 408 l 560 240 b 408 164 524 204 482 171 b 269 281 340 157 269 196 b 376 408 269 354 353 396 z "},"/":{"ha":846,"x_min":0,"x_max":0,"o":"m -51 -187 l 171 -187 l 861 1154 l 638 1154 z "},"§":{"ha":826,"x_min":0,"x_max":0,"o":"m 746 513 b 436 742 746 678 536 721 b 260 821 356 757 260 775 b 374 878 260 854 294 878 b 601 800 447 878 519 858 l 704 926 b 375 1032 607 997 494 1032 b 63 821 307 1032 63 1007 b 179 667 63 758 106 696 b 63 508 133 644 63 592 b 382 281 63 342 279 294 b 550 200 496 265 550 253 b 413 136 550 161 508 129 b 157 229 333 142 240 182 l 60 100 b 418 -19 107 74 243 -19 b 747 208 578 -19 747 47 b 658 367 747 261 714 335 b 746 513 708 392 746 444 z m 225 508 b 321 613 197 582 265 614 b 576 490 436 610 583 572 b 469 414 572 442 518 414 b 225 508 417 414 254 431 z "},"¢":{"ha":967,"x_min":0,"x_max":0,"o":"m 519 278 b 281 506 374 278 281 358 b 519 732 281 656 374 732 b 733 618 631 732 703 678 l 936 696 b 632 911 883 804 793 882 l 632 1033 l 394 1033 l 394 907 b 51 506 200 857 51 710 b 394 103 51 301 200 153 l 394 -17 l 632 -17 l 632 99 b 933 308 779 125 876 204 l 733 385 b 519 278 704 331 639 278 z "},"{":{"ha":642,"x_min":0,"x_max":0,"o":"m 381 192 b 233 419 381 318 306 390 b 381 647 306 449 381 522 b 411 896 378 768 368 835 b 606 969 465 972 606 969 l 606 1165 b 239 1028 582 1165 367 1157 b 149 704 147 928 149 781 b 57 521 150 594 150 529 l 57 318 b 149 135 150 310 150 244 b 239 -189 149 58 147 -89 b 606 -326 367 -318 582 -326 l 606 -131 b 411 -57 606 -131 465 -133 b 381 192 368 4 378 71 z "},"}":{"ha":642,"x_min":0,"x_max":0,"o":"m 257 192 b 226 -57 260 71 269 4 b 32 -131 172 -133 32 -131 l 32 -326 b 399 -189 56 -326 271 -318 b 489 135 490 -89 489 58 b 581 318 488 244 488 310 l 581 521 b 489 704 488 529 488 594 b 399 1028 489 781 490 928 b 32 1165 271 1157 56 1165 l 32 969 b 226 896 32 969 172 972 b 257 647 269 835 260 768 b 404 419 257 522 332 449 b 257 192 332 390 257 318 z "},"€":{"ha":1069,"x_min":0,"x_max":0,"o":"m 1042 217 l 847 299 b 632 175 831 276 783 175 b 397 331 485 175 408 250 l 719 331 l 719 489 l 374 489 b 375 536 374 506 374 521 l 719 536 l 719 696 l 419 696 b 632 838 443 781 511 838 b 846 719 761 838 838 735 l 1029 818 b 632 1032 1025 825 911 1032 b 167 696 390 1032 229 893 l 29 696 l 29 536 l 138 536 b 136 492 136 519 136 508 l 29 489 l 29 331 l 151 331 b 632 -19 211 75 400 -19 b 1042 217 936 -19 1038 210 z "},"$":{"ha":1061,"x_min":0,"x_max":0,"o":"m 389 1140 l 389 1028 b 75 731 226 1003 75 938 b 510 419 75 474 372 440 b 753 304 636 397 753 389 b 551 185 753 233 681 185 b 189 317 428 185 304 244 l 60 144 b 389 1 167 78 250 22 l 389 -121 l 625 -121 l 625 -10 b 990 303 844 7 990 97 b 613 614 990 561 758 593 b 313 739 503 629 313 643 b 503 839 313 824 432 839 b 810 735 603 839 700 803 l 943 903 b 625 1031 831 974 747 1015 l 625 1140 z "},"#":{"ha":1236,"x_min":0,"x_max":0,"o":"m 988 249 l 1068 446 l 878 446 l 932 579 l 1124 579 l 1203 776 l 1011 776 l 1110 1017 l 893 1017 l 793 776 l 636 776 l 732 1017 l 515 1017 l 418 776 l 231 776 l 151 579 l 338 579 l 283 446 l 96 446 l 17 249 l 204 249 l 103 0 l 321 0 l 421 249 l 581 249 l 478 0 l 696 0 l 797 249 z m 714 579 l 658 446 l 503 446 l 556 579 z "},"£":{"ha":960,"x_min":0,"x_max":0,"o":"m 425 421 l 724 421 l 724 592 l 397 592 b 386 697 392 622 388 667 b 542 844 382 778 422 844 b 718 690 658 844 700 771 l 933 753 b 542 1032 897 857 828 1032 b 153 679 279 1032 133 890 l 165 592 l 76 592 l 76 421 l 193 421 b 200 338 200 397 200 360 b 74 181 200 254 121 185 l 74 0 l 888 0 l 888 188 l 367 188 b 426 376 400 218 426 278 b 425 421 426 390 426 404 z "},"'":{"ha":358,"x_min":0,"x_max":0,"o":"m 264 699 l 289 1017 l 57 1017 l 86 699 z "},"<":{"ha":863,"x_min":0,"x_max":0,"o":"m 776 796 l 74 503 l 74 315 l 776 22 l 776 239 l 335 408 l 776 579 z "},">":{"ha":863,"x_min":0,"x_max":0,"o":"m 776 503 l 74 796 l 74 579 l 517 408 l 74 239 l 74 22 l 776 315 z "},":":{"ha":321,"x_min":0,"x_max":0,"o":"m 282 483 b 157 594 282 544 240 594 b 35 483 75 594 35 544 b 157 374 35 424 75 374 b 282 483 240 374 282 424 z m 282 100 b 157 211 282 160 240 211 b 35 100 75 211 35 160 b 157 -11 35 39 75 -11 b 282 100 240 -11 282 39 z "},";":{"ha":333,"x_min":0,"x_max":0,"o":"m 283 483 b 158 594 283 544 242 594 b 36 483 76 594 36 544 b 158 374 36 424 76 374 b 283 483 242 374 283 424 z m 278 104 b 149 211 272 174 224 213 b 31 94 67 210 31 158 b 143 -11 31 38 63 -11 b 67 -150 131 -46 92 -114 l 171 -150 b 278 104 228 -82 286 7 z "},"”":{"ha":613,"x_min":0,"x_max":0,"o":"m 279 925 b 150 1032 274 994 225 1033 b 32 915 68 1031 32 979 b 144 810 32 858 64 810 b 68 671 132 775 93 707 l 172 671 b 279 925 229 739 288 828 z m 569 925 b 440 1032 564 994 515 1033 b 322 915 358 1031 322 979 b 435 810 322 858 354 810 b 358 671 422 775 383 707 l 463 671 b 569 925 519 739 578 828 z "},"“":{"ha":692,"x_min":0,"x_max":0,"o":"m 65 764 b 194 657 71 694 119 656 b 313 774 276 658 313 710 b 200 879 313 831 281 879 b 276 1018 213 914 251 982 l 172 1018 b 65 764 115 950 57 861 z m 356 764 b 485 657 361 694 410 656 b 603 774 567 658 603 710 b 490 879 603 831 571 879 b 567 1018 503 914 542 982 l 463 1018 b 356 764 406 950 347 861 z "},"‘":{"ha":383,"x_min":0,"x_max":0,"o":"m 64 768 b 193 661 69 699 118 660 b 311 778 275 663 311 714 b 199 883 311 835 279 883 b 275 1022 211 918 250 986 l 171 1022 b 64 768 114 954 56 865 z "},"’":{"ha":300,"x_min":0,"x_max":0,"o":"m 271 926 b 142 1033 265 996 217 1035 b 24 917 60 1032 24 981 b 136 811 24 860 56 811 b 60 672 124 776 85 708 l 164 672 b 271 926 221 740 279 829 z "},"–":{"ha":771,"x_min":0,"x_max":0,"o":"m 706 306 l 706 494 l 50 494 l 50 306 z "},"—":{"ha":1147,"x_min":0,"x_max":0,"o":"m 1074 306 l 1074 494 l 51 494 l 51 306 z "},"_":{"ha":1043,"x_min":0,"x_max":0,"o":"m 943 -167 l 943 22 l 75 22 l 75 -167 z "},"~":{"ha":829,"x_min":0,"x_max":0,"o":"m 526 443 b 756 625 658 443 732 557 l 613 669 b 511 585 600 631 563 585 b 265 675 415 585 376 675 b 51 506 139 675 72 569 l 190 463 b 264 532 193 469 218 532 b 526 443 357 532 407 443 z "},"˜":{"ha":683,"x_min":0,"x_max":0,"o":"m 222 1025 b 40 851 121 1025 67 936 l 164 810 b 246 886 169 825 188 886 b 454 800 325 886 329 800 b 633 981 560 800 615 914 l 508 1019 b 422 940 501 1001 483 940 b 222 1025 347 940 332 1025 z "},"\\":{"ha":769,"x_min":0,"x_max":0,"o":"m -74 1154 l 485 -187 l 715 -187 l 157 1154 z "},"®":{"ha":1290,"x_min":0,"x_max":0,"o":"m 636 -17 b 1222 506 974 -17 1222 204 b 636 1026 1222 806 974 1026 b 51 506 300 1026 51 806 b 636 -17 51 204 300 -17 z m 636 911 b 1090 506 903 911 1090 744 b 636 99 1090 265 903 99 b 183 506 369 99 183 265 b 636 911 183 744 369 911 z m 419 271 l 529 271 l 529 408 l 632 408 l 672 360 b 749 271 693 332 726 297 l 879 271 b 754 421 840 319 793 375 b 869 582 828 454 869 511 b 676 754 869 683 790 754 l 419 754 z m 529 506 l 529 660 l 676 660 b 764 582 715 660 764 647 b 676 506 764 511 699 506 z "},"°":{"ha":524,"x_min":0,"x_max":0,"o":"m 260 821 b 464 1004 386 821 464 904 b 260 1188 464 1106 386 1188 b 53 1004 133 1188 53 1106 b 260 821 53 904 133 821 z m 260 1060 b 319 1004 308 1060 319 1035 b 260 950 319 974 308 950 b 196 1004 211 950 196 974 b 260 1060 196 1035 211 1060 z "},"•":{"ha":564,"x_min":0,"x_max":0,"o":"m 94 425 b 279 261 94 335 165 261 b 464 425 394 261 464 335 b 279 589 464 515 394 589 b 94 425 165 589 94 515 z "},"†":{"ha":753,"x_min":0,"x_max":0,"o":"m 718 619 l 718 794 l 471 794 l 471 1054 l 275 1054 l 275 794 l 25 794 l 25 619 l 275 619 l 275 0 l 471 0 l 471 619 z "},"™":{"ha":1325,"x_min":0,"x_max":0,"o":"m 1201 1061 l 907 754 l 617 1061 l 617 494 l 776 494 l 776 671 l 907 531 l 1039 671 l 1039 494 l 1201 494 z m 74 1017 l 74 878 l 240 878 l 240 494 l 401 494 l 401 878 l 569 878 l 569 1017 z "},"\"":{"ha":693,"x_min":0,"x_max":0,"o":"m 267 699 l 292 1017 l 61 1017 l 88 699 z m 588 699 l 615 1017 l 383 1017 l 411 699 z "},"|":{"ha":446,"x_min":0,"x_max":0,"o":"m 308 -144 l 308 1157 l 131 1157 l 131 -144 z "},"Æ":{"ha":1657,"x_min":0,"x_max":0,"o":"m 933 824 l 1542 824 l 1542 1017 l 719 1017 l -33 0 l 238 0 l 360 167 l 694 167 l 694 0 l 1542 0 l 1542 194 l 933 194 l 933 404 l 1474 404 l 1474 600 l 933 600 z m 694 632 l 694 357 l 501 357 z "},"%":{"ha":1497,"x_min":0,"x_max":0,"o":"m 343 446 b 640 733 513 446 640 569 b 343 1022 640 901 517 1022 b 46 733 171 1022 46 901 b 343 446 46 567 171 446 z m 299 0 l 504 0 l 1167 996 l 963 996 z m 343 856 b 428 733 406 856 428 781 b 343 611 428 683 401 611 b 261 733 265 611 261 717 b 343 856 261 757 265 856 z m 1129 -21 b 1426 269 1297 -21 1426 103 b 1129 557 1426 436 1300 557 b 831 269 957 557 831 436 b 1129 -21 831 100 957 -21 z m 1129 392 b 1214 269 1193 392 1214 315 b 1129 146 1214 217 1186 146 b 1046 269 1050 146 1046 251 b 1129 392 1046 292 1050 392 z "},"`":{"ha":443,"x_min":0,"x_max":0,"o":"m 415 817 l 218 1044 l 14 967 l 239 817 z "},"‰":{"ha":2143,"x_min":0,"x_max":0,"o":"m 349 446 b 644 733 517 446 644 569 b 349 1022 644 901 519 1022 b 50 733 174 1022 50 901 b 349 446 50 567 174 446 z m 299 0 l 504 0 l 1167 996 l 963 996 z m 349 856 b 432 733 411 856 432 781 b 349 611 432 683 406 611 b 264 733 268 611 264 717 b 349 856 264 757 268 856 z m 1132 -21 b 1429 269 1301 -21 1429 103 b 1132 557 1429 436 1306 557 b 836 269 961 557 836 436 b 1132 -21 836 100 961 -21 z m 1774 -21 b 2071 269 1944 -21 2071 103 b 1774 557 2071 436 1946 557 b 1478 269 1600 557 1478 436 b 1774 -21 1478 100 1600 -21 z m 1132 392 b 1217 269 1196 392 1217 315 b 1132 146 1217 217 1192 146 b 1049 269 1053 146 1049 251 b 1132 392 1049 292 1053 392 z m 1774 392 b 1860 269 1836 392 1860 315 b 1774 146 1860 217 1832 146 b 1689 269 1693 146 1689 251 b 1774 392 1689 292 1693 392 z "},"¥":{"ha":954,"x_min":0,"x_max":0,"o":"m 640 553 l 943 1017 l 668 1017 l 471 714 l 274 1017 l -1 1017 l 301 553 l 113 553 l 113 408 l 351 408 l 351 314 l 113 314 l 113 171 l 351 171 l 351 0 l 589 0 l 589 171 l 843 171 l 843 314 l 589 314 l 589 408 l 843 408 l 843 553 z "},"‡":{"ha":764,"x_min":0,"x_max":0,"o":"m 25 435 l 25 260 l 275 260 l 275 0 l 471 0 l 471 260 l 718 260 l 718 435 l 471 435 l 471 619 l 718 619 l 718 794 l 471 794 l 471 1054 l 275 1054 l 275 794 l 25 794 l 25 619 l 275 619 l 275 435 z "},"‚":{"ha":326,"x_min":0,"x_max":0,"o":"m 278 104 b 149 211 272 174 224 213 b 31 94 67 210 31 158 b 143 -11 31 38 63 -11 b 67 -150 131 -46 92 -114 l 171 -150 b 278 104 228 -82 286 7 z "},"≠":{"ha":876,"x_min":0,"x_max":0,"o":"m 576 494 l 781 494 l 781 683 l 676 683 l 753 815 l 518 815 l 446 683 l 78 683 l 78 494 l 340 494 b 269 368 314 447 297 415 l 78 368 l 78 179 l 167 179 l 93 47 l 329 47 l 401 179 l 781 179 l 781 368 l 506 368 b 576 494 529 415 550 449 z "},"ª":{"ha":568,"x_min":0,"x_max":0,"o":"m 371 582 l 513 582 l 513 1022 l 371 1022 l 371 1001 b 249 1033 339 1021 300 1033 b 3 803 78 1033 3 932 b 249 572 3 671 78 572 b 371 604 297 572 339 588 z m 372 803 b 261 694 372 728 324 694 b 147 803 178 694 147 738 b 261 913 147 867 175 913 b 372 803 324 913 372 878 z m 517 383 l 517 515 l 51 515 l 51 383 z "},"º":{"ha":617,"x_min":0,"x_max":0,"o":"m 300 568 b 561 800 457 568 561 674 b 300 1033 561 928 457 1033 b 39 800 142 1033 39 928 b 300 568 39 674 142 568 z m 300 904 b 404 800 372 904 404 858 b 300 699 404 743 372 699 b 194 800 226 699 194 742 b 300 904 194 858 228 904 z m 532 383 l 532 515 l 68 515 l 68 383 z "},"¡":{"ha":457,"x_min":0,"x_max":0,"o":"m 101 914 b 226 804 101 854 143 804 b 351 914 308 804 351 854 b 226 1025 351 975 308 1025 b 101 914 143 1025 101 975 z m 138 725 l 99 0 l 353 0 l 314 725 z "},"¿":{"ha":911,"x_min":0,"x_max":0,"o":"m 379 931 b 504 1042 379 1006 438 1042 b 628 931 572 1042 628 1006 b 504 819 628 857 572 819 b 379 931 438 819 379 857 z m 53 285 b 453 -11 53 75 214 -11 b 879 282 774 -11 854 214 l 661 346 b 453 197 638 279 594 197 b 292 299 300 197 292 260 b 392 407 292 338 318 372 b 624 743 539 476 624 597 l 390 743 b 276 565 390 649 363 607 b 53 285 182 519 53 472 z "},"…":{"ha":1140,"x_min":0,"x_max":0,"o":"m 319 100 b 194 211 319 160 278 211 b 72 100 114 211 72 160 b 194 -11 72 39 114 -11 b 319 100 278 -11 319 39 z m 681 100 b 557 211 681 160 639 211 b 433 100 476 211 433 160 b 557 -11 433 39 476 -11 b 681 100 639 -11 681 39 z m 1044 100 b 919 211 1044 160 1001 211 b 793 100 838 211 793 160 b 919 -11 793 39 838 -11 b 1044 100 1001 -11 1044 39 z "},"⁄":{"ha":825,"x_min":0,"x_max":0,"o":"m -17 0 l 154 0 l 832 1017 l 663 1017 z "},"Œ":{"ha":1808,"x_min":0,"x_max":0,"o":"m 1085 824 l 1692 824 l 1692 1015 l 847 1015 l 847 1004 b 624 1035 788 1024 719 1035 b 64 508 301 1035 64 811 b 631 -19 64 204 301 -19 b 847 11 724 -19 786 -10 l 847 0 l 1692 0 l 1692 193 l 1085 193 l 1085 404 l 1625 404 l 1625 599 l 1085 599 z m 656 172 b 301 508 458 172 301 285 b 656 843 301 740 458 843 b 847 775 763 843 817 810 l 847 242 b 656 172 810 206 757 172 z "},"^":{"ha":943,"x_min":0,"x_max":0,"o":"m 621 507 l 865 507 l 579 1024 l 340 1024 l 54 507 l 297 507 l 461 817 z "},"„":{"ha":613,"x_min":0,"x_max":0,"o":"m 279 101 b 150 208 274 171 225 210 b 32 92 68 207 32 156 b 144 -14 32 35 64 -14 b 68 -153 132 -49 93 -117 l 172 -153 b 279 101 229 -85 288 4 z m 569 101 b 440 208 564 171 515 210 b 322 92 358 207 322 156 b 435 -14 322 35 354 -14 b 358 -153 422 -49 383 -117 l 463 -153 b 569 101 519 -85 578 4 z "},"·":{"ha":321,"x_min":0,"x_max":0,"o":"m 283 469 b 158 579 283 529 242 579 b 36 469 78 579 36 529 b 158 358 36 408 78 358 b 283 469 242 358 283 408 z "},"±":{"ha":793,"x_min":0,"x_max":0,"o":"m 693 663 l 499 663 l 499 871 l 276 871 l 276 663 l 81 663 l 81 476 l 276 476 l 276 271 l 499 271 l 499 476 l 693 476 z m 81 0 l 693 0 l 693 189 l 81 189 z "},"≤":{"ha":751,"x_min":0,"x_max":0,"o":"m 64 672 l 64 513 l 671 253 l 671 486 l 333 597 l 671 717 l 671 946 z m 63 0 l 674 0 l 674 189 l 63 189 z "},"≥":{"ha":751,"x_min":0,"x_max":0,"o":"m 672 672 l 65 946 l 65 717 l 401 597 l 65 486 l 65 253 l 672 513 z m 674 0 l 674 189 l 63 189 l 63 0 z "},"»":{"ha":1057,"x_min":0,"x_max":0,"o":"m 311 381 l 67 56 l 315 56 l 551 381 l 314 708 l 69 708 z m 732 381 l 486 56 l 736 56 l 972 381 l 735 708 l 489 708 b 732 381 564 606 656 485 z "},"«":{"ha":1057,"x_min":0,"x_max":0,"o":"m 307 56 l 558 56 l 313 381 l 557 708 l 308 708 l 74 381 z m 729 56 l 979 56 l 733 381 l 976 708 l 731 708 l 493 381 z "},"‹":{"ha":632,"x_min":0,"x_max":0,"o":"m 306 56 l 556 56 l 311 381 l 554 708 l 307 708 l 71 381 z "},"›":{"ha":632,"x_min":0,"x_max":0,"o":"m 63 56 l 314 56 l 547 381 l 313 708 l 64 708 b 308 381 142 606 232 485 z "},"¶":{"ha":849,"x_min":0,"x_max":0,"o":"m 304 0 l 472 0 l 472 919 l 558 919 l 558 0 l 726 0 l 726 1017 l 436 1017 b 31 707 99 1017 31 856 b 304 433 31 532 169 442 z "},"¦":{"ha":446,"x_min":0,"x_max":0,"o":"m 131 1157 l 131 608 l 308 608 l 308 1157 z m 131 -144 l 308 -144 l 308 403 l 131 403 z "},"ß":{"ha":1049,"x_min":0,"x_max":0,"o":"m 851 763 b 510 1028 851 950 686 1028 b 208 932 372 1028 276 994 b 125 724 131 851 125 772 l 125 0 l 351 0 l 350 733 b 490 836 350 733 344 836 b 629 735 622 836 629 763 b 425 625 629 706 606 625 l 425 425 b 742 303 569 425 742 429 b 536 169 742 194 661 169 b 401 182 503 169 457 174 l 401 4 b 583 -17 457 -10 551 -17 b 963 286 819 -17 963 63 b 726 553 963 476 813 544 b 851 763 803 586 851 632 z "},"¬":{"ha":919,"x_min":0,"x_max":0,"o":"m 828 188 l 828 610 l 67 610 l 67 421 l 592 421 l 592 188 z "},"¼":{"ha":1235,"x_min":0,"x_max":0,"o":"m 299 1018 l 201 1018 l 61 890 l 61 689 l 149 768 l 149 349 l 299 349 z m 144 0 l 301 0 l 931 1017 l 774 1017 z m 1150 274 l 1067 274 l 1067 669 l 954 669 l 594 265 l 594 144 l 917 144 l 917 0 l 1067 0 l 1067 144 l 1150 144 z m 917 419 l 917 274 l 794 274 z "},"½":{"ha":1235,"x_min":0,"x_max":0,"o":"m 299 1018 l 201 1018 l 61 890 l 61 689 l 149 768 l 149 349 l 299 349 z m 144 0 l 303 0 l 932 1017 l 774 1017 z m 1183 131 l 904 131 b 1174 467 1018 222 1174 317 b 931 679 1174 569 1096 679 b 681 479 775 679 699 547 l 826 443 b 931 547 829 451 858 547 b 1022 467 972 547 1022 528 b 938 335 1022 429 1013 394 l 693 140 l 693 0 l 1183 0 z "},"¾":{"ha":1383,"x_min":0,"x_max":0,"o":"m 503 824 b 257 1022 503 917 438 1022 b 10 824 94 1022 31 893 l 158 783 b 257 890 163 817 178 890 b 353 824 321 890 353 861 b 182 739 353 750 290 743 l 182 622 b 353 525 293 618 353 606 b 257 457 353 489 321 457 b 158 567 181 457 163 535 l 10 525 b 257 328 22 453 94 328 b 461 407 319 328 407 344 b 503 525 496 451 503 501 b 411 678 503 614 458 656 b 503 824 458 699 503 738 z m 314 0 l 472 0 l 1100 1017 l 943 1017 z m 1319 274 l 1238 274 l 1238 669 l 1125 669 l 764 265 l 764 144 l 1086 144 l 1086 0 l 1238 0 l 1238 144 l 1319 144 z m 1086 419 l 1086 274 l 964 274 z "},"¹":{"ha":385,"x_min":0,"x_max":0,"o":"m 294 1154 l 197 1154 l 57 1017 l 57 824 l 143 904 l 143 485 l 294 485 z "},"²":{"ha":575,"x_min":0,"x_max":0,"o":"m 529 618 l 250 618 b 519 954 364 708 519 804 b 276 1167 519 1057 442 1167 b 26 967 121 1167 44 1035 l 172 931 b 276 1035 175 939 204 1035 b 368 954 318 1035 368 1015 b 283 822 368 917 360 882 l 40 628 l 40 488 l 529 488 z "},"³":{"ha":554,"x_min":0,"x_max":0,"o":"m 503 967 b 257 1165 503 1060 438 1165 b 10 967 94 1165 31 1036 l 158 926 l 160 943 b 257 1033 165 969 186 1033 b 351 967 321 1033 351 1003 b 182 881 351 892 289 885 l 182 764 b 351 668 292 760 351 749 b 257 600 351 632 321 600 b 160 690 182 600 165 667 l 158 708 l 10 668 b 257 469 31 599 94 469 b 461 550 319 469 407 488 b 503 668 496 593 503 643 b 411 821 503 757 458 799 b 503 967 458 842 503 881 z "},"×":{"ha":728,"x_min":0,"x_max":0,"o":"m 692 594 l 539 740 l 356 567 l 175 739 l 24 593 l 206 419 l 24 246 l 175 99 l 356 274 l 538 97 l 690 243 l 508 419 z "},"­":{"ha":1299,"x_min":0,"x_max":0,"o":""},"´":{"ha":458,"x_min":0,"x_max":0,"o":"m 222 1044 l 24 817 l 203 817 l 426 967 z "},"˘":{"ha":668,"x_min":0,"x_max":0,"o":"m 624 1026 l 464 1026 b 333 940 447 979 407 940 b 200 1026 276 940 219 963 l 38 1026 b 333 797 61 890 179 797 b 624 1026 486 797 600 888 z "},"¨":{"ha":646,"x_min":0,"x_max":0,"o":"m 49 917 b 165 815 49 858 85 815 b 279 917 244 815 279 858 b 165 1019 279 974 244 1019 b 49 917 85 1019 49 974 z m 358 917 b 474 815 358 858 393 815 b 592 917 553 815 592 858 b 474 1019 592 974 553 1019 b 358 917 393 1019 358 974 z "},"ˆ":{"ha":672,"x_min":0,"x_max":0,"o":"m 244 1043 l 40 813 l 236 813 l 340 913 l 444 813 l 640 813 l 436 1043 z "},"ˇ":{"ha":674,"x_min":0,"x_max":0,"o":"m 425 813 l 629 1043 l 433 1043 l 329 943 l 225 1043 l 29 1043 l 233 813 z "},"¯":{"ha":588,"x_min":0,"x_max":0,"o":"m 533 844 l 533 992 l 40 992 l 40 844 z "},"˚":{"ha":433,"x_min":0,"x_max":0,"o":"m 213 707 b 390 865 325 707 390 778 b 213 1021 390 950 325 1021 b 38 865 103 1021 38 950 b 213 707 38 778 103 707 z m 213 908 b 264 865 250 908 264 889 b 213 821 264 839 250 821 b 164 865 178 821 164 839 b 213 908 164 889 178 908 z "},"˝":{"ha":746,"x_min":0,"x_max":0,"o":"m 218 1031 l 17 803 l 190 803 l 406 953 z m 504 1031 l 306 803 l 479 803 l 692 953 z "},"˙":{"ha":329,"x_min":0,"x_max":0,"o":"m 43 957 b 161 856 43 899 79 856 b 275 957 240 856 275 899 b 161 1061 275 1014 240 1061 b 43 957 79 1061 43 1014 z "},"˛":{"ha":433,"x_min":0,"x_max":0,"o":"m 263 -257 b 311 -254 276 -257 296 -257 b 414 -225 358 -247 411 -226 l 346 -93 b 203 -65 325 -104 208 -146 b 300 0 200 -22 256 0 l 292 144 b 81 53 236 142 129 110 b 40 -62 53 17 40 -22 b 119 -214 40 -121 74 -179 b 263 -257 156 -239 210 -257 z "},"¸":{"ha":358,"x_min":0,"x_max":0,"o":"m 239 -17 b 192 -10 222 -12 204 -10 l 217 36 l 92 36 l 39 -71 l 64 -110 b 190 -133 108 -101 188 -99 b 146 -165 192 -151 179 -165 b 56 -144 101 -165 83 -156 l 14 -212 b 156 -260 14 -212 67 -258 b 324 -136 200 -260 315 -249 b 239 -17 329 -83 297 -31 z "},"æ":{"ha":1575,"x_min":0,"x_max":0,"o":"m 1065 -19 b 1450 158 1338 -19 1418 117 l 1276 251 b 1065 163 1251 225 1213 163 b 840 301 979 163 867 176 l 1492 301 b 1496 397 1492 301 1496 339 b 1065 776 1488 657 1308 776 b 757 675 944 776 851 751 b 475 778 699 743 621 778 b 90 676 269 778 146 708 l 185 521 b 436 593 226 544 292 593 b 613 485 564 593 608 558 b 461 494 564 492 508 494 b 61 232 338 494 61 482 b 419 -17 61 0 331 -17 b 743 97 483 -17 629 -11 b 1065 -19 838 10 957 -19 z m 1051 594 b 1258 460 1178 594 1258 543 l 846 460 b 1051 594 846 528 921 594 z m 428 165 b 292 243 408 165 292 168 b 471 335 292 346 419 335 b 621 326 506 335 571 332 b 428 165 640 208 531 165 z "},"œ":{"ha":1681,"x_min":0,"x_max":0,"o":"m 1171 -19 b 1557 158 1443 -19 1524 117 l 1383 251 b 1171 163 1357 225 1321 163 b 946 301 1126 163 957 176 l 1597 301 b 1601 397 1597 301 1601 339 b 1171 776 1601 650 1424 776 b 842 643 1075 776 935 744 b 511 778 761 725 643 778 b 64 381 251 778 64 613 b 511 -18 64 146 251 -18 b 840 114 643 -18 758 33 b 1171 -19 915 17 1071 -19 z m 511 596 b 738 381 653 596 738 517 b 511 163 738 243 653 163 b 285 381 368 163 285 240 b 511 596 285 515 372 596 z m 1171 594 b 1365 460 1283 594 1365 544 l 953 460 b 1171 594 953 542 1043 594 z "},"Ø":{"ha":1319,"x_min":0,"x_max":0,"o":"m 1108 857 l 1182 933 l 1054 1057 l 964 964 b 651 1035 874 1010 767 1035 b 61 508 325 1035 61 835 b 193 160 61 367 111 249 l 114 78 l 240 -46 l 336 53 b 651 -19 426 6 535 -19 b 1243 508 978 -19 1243 179 b 1108 857 1243 650 1193 769 z m 297 508 b 651 835 297 732 456 835 b 814 807 710 835 765 825 l 350 325 b 297 508 317 375 297 436 z m 651 179 b 488 213 593 179 538 190 l 954 697 b 1006 508 988 647 1006 585 b 651 179 1006 304 847 179 z "},"a":{"ha":1069,"x_min":0,"x_max":0,"o":"m 743 0 l 951 0 l 951 764 l 743 764 l 729 685 b 479 781 688 736 599 781 b 64 382 232 781 64 629 b 479 -17 64 135 232 -17 b 729 76 596 -17 694 33 z m 738 382 b 511 167 738 249 651 167 b 285 382 388 167 285 236 b 511 599 285 531 383 599 b 738 382 651 599 738 508 z "},"b":{"ha":1069,"x_min":0,"x_max":0,"o":"m 311 0 l 325 76 b 575 -17 360 33 458 -17 b 990 382 822 -17 990 135 b 575 781 990 629 822 781 b 325 685 456 781 367 736 l 325 1050 l 103 1050 l 103 0 z m 317 382 b 543 599 317 508 403 599 b 769 382 671 599 769 531 b 543 167 769 236 667 167 b 317 382 403 167 317 249 z "},"c":{"ha":975,"x_min":0,"x_max":0,"o":"m 514 -19 b 914 206 711 -19 850 56 l 724 275 b 514 164 683 196 603 164 b 288 379 376 164 288 235 b 513 594 288 522 375 594 b 715 481 601 594 679 557 l 918 554 b 513 776 850 697 694 776 b 64 379 260 776 64 618 b 514 -19 64 140 261 -19 z "},"d":{"ha":1069,"x_min":0,"x_max":0,"o":"m 743 0 l 951 0 l 951 1050 l 729 1050 l 729 685 b 479 781 688 736 599 781 b 64 382 232 781 64 629 b 479 -17 64 135 232 -17 b 729 76 596 -17 694 33 z m 738 382 b 511 167 738 249 651 167 b 285 382 388 167 285 236 b 511 599 285 531 383 599 b 738 382 651 599 738 508 z "},"e":{"ha":1021,"x_min":0,"x_max":0,"o":"m 513 -19 b 899 158 754 -19 864 104 l 725 251 b 513 163 699 213 638 163 b 288 301 468 163 301 176 l 939 301 b 943 397 939 301 943 339 b 513 776 936 661 725 776 b 64 379 358 776 64 713 b 513 -19 64 46 353 -19 z m 511 594 b 707 449 624 594 707 518 l 294 449 b 511 594 303 526 382 594 z "},"f":{"ha":585,"x_min":0,"x_max":0,"o":"m 367 574 l 514 574 l 514 751 l 367 751 b 472 882 367 803 361 871 b 557 875 501 885 531 882 l 568 1043 b 469 1056 532 1051 499 1056 b 142 751 256 1056 149 967 l 49 751 l 49 574 l 142 574 l 142 0 l 367 0 z "},"g":{"ha":1069,"x_min":0,"x_max":0,"o":"m 951 68 l 951 764 l 743 764 l 729 710 b 499 778 671 754 594 778 b 64 394 242 778 64 624 b 499 13 64 167 242 13 b 729 81 594 13 671 36 l 729 68 b 529 -151 729 -3 722 -147 b 249 -67 414 -154 314 -114 l 139 -214 b 533 -329 244 -290 379 -329 b 951 68 813 -329 951 -151 z m 511 188 b 285 394 383 188 285 257 b 511 601 285 529 388 601 b 738 394 639 601 738 531 b 511 188 738 260 639 188 z "},"h":{"ha":1019,"x_min":0,"x_max":0,"o":"m 583 782 b 329 696 475 782 383 747 l 329 1051 l 104 1051 l 104 0 l 329 0 l 329 375 b 507 599 324 556 411 599 b 678 424 597 599 678 571 l 678 0 l 903 0 l 903 451 b 583 782 903 664 815 782 z "},"i":{"ha":457,"x_min":0,"x_max":0,"o":"m 349 956 b 224 1067 349 1015 307 1067 b 101 956 143 1067 101 1015 b 224 844 101 894 143 844 b 349 956 307 844 349 894 z m 114 0 l 339 0 l 339 764 l 114 764 z "},"j":{"ha":479,"x_min":0,"x_max":0,"o":"m 369 956 b 244 1067 369 1015 328 1067 b 122 956 164 1067 122 1015 b 244 844 122 894 164 844 b 369 956 328 844 369 894 z m 358 764 l 133 764 l 133 -37 b 29 -150 133 -86 143 -150 b -56 -139 0 -150 -28 -146 l -68 -312 b 58 -325 -32 -321 1 -325 b 358 -35 269 -325 358 -254 z "},"k":{"ha":929,"x_min":0,"x_max":0,"o":"m 106 1050 l 106 0 l 331 0 l 331 164 l 411 250 l 626 0 l 899 0 l 554 404 l 885 760 l 611 760 l 331 439 l 331 1050 z "},"l":{"ha":479,"x_min":0,"x_max":0,"o":"m 104 179 b 368 -11 104 18 210 -11 b 424 -8 394 -11 411 -10 l 424 171 b 329 267 321 165 329 226 l 329 1049 l 104 1049 z "},"m":{"ha":1549,"x_min":0,"x_max":0,"o":"m 1076 778 b 811 674 967 778 874 738 b 546 778 754 739 672 778 b 329 694 479 778 386 742 l 315 764 l 106 764 l 106 0 l 329 0 l 331 404 b 489 606 331 571 419 606 b 649 451 574 606 649 569 l 649 0 l 875 0 l 875 425 b 1032 606 876 571 971 606 b 1193 451 1119 606 1193 569 l 1193 0 l 1419 0 l 1419 451 b 1076 778 1419 650 1314 778 z "},"n":{"ha":1019,"x_min":0,"x_max":0,"o":"m 583 782 b 329 696 475 782 383 747 l 315 764 l 104 764 l 104 0 l 329 0 l 329 375 b 507 599 324 556 411 599 b 678 424 597 599 678 571 l 678 0 l 903 0 l 903 451 b 583 782 903 664 815 782 z "},"o":{"ha":1042,"x_min":0,"x_max":0,"o":"m 511 -18 b 961 381 757 -18 961 140 b 511 778 961 618 757 778 b 64 381 265 778 64 618 b 511 -18 64 140 265 -18 z m 511 596 b 738 381 639 596 738 521 b 511 163 738 239 639 163 b 285 381 382 163 285 236 b 511 596 285 519 386 596 z "},"p":{"ha":1069,"x_min":0,"x_max":0,"o":"m 311 764 l 103 764 l 103 -254 l 325 -254 l 325 79 b 575 -17 367 28 456 -17 b 990 382 822 -17 990 135 b 575 781 990 629 822 781 b 325 688 458 781 360 731 z m 317 382 b 543 597 317 515 403 597 b 769 382 667 597 769 528 b 543 165 769 233 671 165 b 317 382 403 165 317 256 z "},"q":{"ha":1069,"x_min":0,"x_max":0,"o":"m 743 764 l 729 688 b 479 781 694 731 596 781 b 64 382 232 781 64 629 b 479 -17 64 135 232 -17 b 729 79 599 -17 688 28 l 729 -254 l 951 -254 l 951 764 z m 738 382 b 511 165 738 256 651 165 b 285 382 383 165 285 233 b 511 597 285 528 388 597 b 738 382 651 597 738 515 z "},"r":{"ha":636,"x_min":0,"x_max":0,"o":"m 606 575 l 606 778 b 324 663 547 779 408 765 l 310 764 l 100 764 l 100 0 l 324 0 l 324 338 b 606 575 324 569 551 579 z "},"s":{"ha":858,"x_min":0,"x_max":0,"o":"m 444 -18 b 783 231 660 -18 783 58 b 496 461 783 442 593 446 b 299 540 411 475 299 475 b 407 597 299 592 363 597 b 640 526 499 597 579 560 l 757 668 b 414 778 650 743 544 778 b 74 536 335 778 74 774 b 400 296 74 331 288 314 b 560 232 444 289 560 297 b 442 164 560 179 510 164 b 174 246 342 164 239 206 l 57 101 b 444 -18 147 35 267 -18 z "},"t":{"ha":636,"x_min":0,"x_max":0,"o":"m 381 594 l 546 594 l 546 776 l 381 776 l 381 981 l 186 981 l 158 776 l 58 776 l 58 594 l 158 594 l 158 193 b 439 -11 158 32 265 -11 b 540 -6 471 -11 513 -8 l 540 168 l 483 168 b 381 281 372 168 381 239 z "},"u":{"ha":1019,"x_min":0,"x_max":0,"o":"m 424 -18 b 678 68 532 -18 624 17 l 692 0 l 903 0 l 903 764 l 678 764 l 678 389 b 500 165 683 208 596 165 b 329 340 410 165 329 193 l 329 764 l 104 764 l 104 313 b 424 -18 104 100 192 -18 z "},"v":{"ha":896,"x_min":0,"x_max":0,"o":"m 439 -33 l 882 764 l 632 764 l 439 388 l 247 764 l -1 764 z "},"w":{"ha":1188,"x_min":0,"x_max":0,"o":"m 358 -32 l 583 379 l 811 -32 l 1165 764 l 929 764 l 786 415 l 583 803 l 383 417 l 246 764 l 7 764 z "},"x":{"ha":939,"x_min":0,"x_max":0,"o":"m 631 0 l 913 0 l 600 378 l 919 764 l 638 764 l 463 526 l 283 764 l 4 764 l 319 378 l 8 0 l 289 0 l 463 226 z "},"y":{"ha":964,"x_min":0,"x_max":0,"o":"m 144 -321 b 286 -331 188 -328 239 -331 b 535 -135 414 -331 481 -260 b 929 764 636 89 929 764 l 674 764 l 482 275 l 274 764 l 14 764 l 368 28 b 331 -62 368 28 350 -19 b 246 -151 318 -89 296 -147 b 154 -144 217 -154 183 -150 z "},"z":{"ha":849,"x_min":0,"x_max":0,"o":"m 442 585 l -7 0 l 792 0 l 792 181 l 389 181 l 839 764 l 54 764 l 54 585 z "},"À":{"ha":1207,"x_min":0,"x_max":0,"o":"m 693 1101 l 496 1329 l 292 1251 l 517 1101 z m -4 0 l 257 0 l 340 156 l 851 156 l 939 0 l 1199 0 l 597 1047 z m 457 343 l 597 608 l 738 343 z "},"Á":{"ha":1207,"x_min":0,"x_max":0,"o":"m 694 1329 l 496 1101 l 675 1101 l 899 1251 z m -4 0 l 257 0 l 340 156 l 851 156 l 939 0 l 1199 0 l 597 1047 z m 457 343 l 597 608 l 738 343 z "},"Â":{"ha":1207,"x_min":0,"x_max":0,"o":"m 504 1331 l 300 1100 l 496 1100 l 600 1200 l 704 1100 l 900 1100 l 696 1331 z m -4 0 l 257 0 l 340 156 l 851 156 l 939 0 l 1199 0 l 597 1047 z m 457 343 l 597 608 l 738 343 z "},"Ã":{"ha":1207,"x_min":0,"x_max":0,"o":"m 486 1321 b 304 1147 385 1321 331 1232 l 428 1106 b 510 1182 433 1121 451 1182 b 718 1096 589 1182 593 1096 b 897 1276 824 1096 879 1210 l 772 1315 b 686 1236 765 1297 747 1236 b 486 1321 611 1236 596 1321 z m -4 0 l 257 0 l 340 156 l 851 156 l 939 0 l 1199 0 l 597 1047 z m 457 343 l 597 608 l 738 343 z "},"Ä":{"ha":1207,"x_min":0,"x_max":0,"o":"m 325 1192 b 442 1090 325 1133 361 1090 b 556 1192 521 1090 556 1133 b 442 1294 556 1249 521 1294 b 325 1192 361 1294 325 1249 z m 635 1192 b 750 1090 635 1133 669 1090 b 868 1192 829 1090 868 1133 b 750 1294 868 1249 829 1294 b 635 1192 669 1294 635 1249 z m -4 0 l 257 0 l 340 156 l 851 156 l 939 0 l 1199 0 l 597 1047 z m 457 343 l 597 608 l 738 343 z "},"Å":{"ha":1207,"x_min":0,"x_max":0,"o":"m 651 953 b 775 1106 731 972 775 1033 b 597 1261 775 1190 710 1261 b 422 1106 488 1261 422 1190 b 543 954 422 1033 467 972 l -4 0 l 257 0 l 340 156 l 851 156 l 939 0 l 1199 0 z m 597 1149 b 649 1106 635 1149 649 1129 b 597 1061 649 1079 635 1061 b 549 1106 563 1061 549 1079 b 597 1149 549 1129 563 1149 z m 457 343 l 597 608 l 738 343 z "},"Ç":{"ha":1214,"x_min":0,"x_max":0,"o":"m 646 179 b 294 507 451 179 294 275 b 646 833 294 732 451 833 b 946 675 768 833 892 763 l 1167 754 b 646 1032 1075 919 917 1032 b 56 507 321 1032 56 833 b 564 -15 56 188 278 13 l 514 -118 l 539 -157 b 665 -181 583 -149 663 -146 b 621 -212 667 -199 654 -212 b 531 -192 576 -212 558 -203 l 489 -260 b 631 -307 489 -260 542 -306 b 799 -183 675 -307 790 -296 b 714 -64 804 -131 772 -78 b 667 -57 697 -60 679 -57 l 688 -18 b 1167 261 933 -7 1079 101 l 946 340 b 646 179 892 251 768 179 z "},"Š":{"ha":1061,"x_min":0,"x_max":0,"o":"m 613 1101 l 817 1332 l 621 1332 l 517 1232 l 413 1332 l 217 1332 l 421 1101 z m 189 300 l 68 139 b 563 -19 169 58 325 -19 b 999 296 822 -19 999 71 b 538 624 999 579 733 589 b 319 732 438 642 319 633 b 508 832 319 832 439 832 b 824 733 615 832 729 796 l 951 894 b 518 1031 831 976 710 1031 b 82 724 324 1031 82 965 b 518 413 82 444 379 432 b 764 290 668 392 764 382 b 560 178 764 204 690 178 b 189 300 433 178 269 239 z "},"Ž":{"ha":1094,"x_min":0,"x_max":0,"o":"m 639 1101 l 843 1332 l 647 1332 l 543 1232 l 439 1332 l 243 1332 l 447 1101 z m 432 190 l 1079 1014 l 74 1014 l 74 824 l 643 824 l -1 0 l 1026 0 l 1026 190 z "},"Ÿ":{"ha":1101,"x_min":0,"x_max":0,"o":"m 278 1192 b 394 1090 278 1133 314 1090 b 508 1192 474 1090 508 1133 b 394 1294 508 1249 474 1294 b 278 1192 314 1294 278 1249 z m 588 1192 b 703 1090 588 1133 622 1090 b 821 1192 782 1090 821 1133 b 703 1294 821 1249 782 1294 b 588 1192 622 1294 588 1249 z m 1101 1014 l 824 1014 l 547 604 l 275 1014 l -3 1014 l 429 385 l 429 0 l 667 0 l 667 385 z "},"È":{"ha":1050,"x_min":0,"x_max":0,"o":"m 671 1101 l 474 1329 l 269 1251 l 494 1101 z m 353 825 l 946 825 l 946 1015 l 115 1015 l 115 0 l 946 0 l 946 190 l 353 190 l 353 407 l 878 407 l 878 599 l 353 599 z "},"É":{"ha":1050,"x_min":0,"x_max":0,"o":"m 567 1329 l 368 1101 l 547 1101 l 771 1251 z m 353 825 l 946 825 l 946 1015 l 115 1015 l 115 0 l 946 0 l 946 190 l 353 190 l 353 407 l 878 407 l 878 599 l 353 599 z "},"Ê":{"ha":1050,"x_min":0,"x_max":0,"o":"m 425 1331 l 221 1100 l 417 1100 l 521 1200 l 625 1100 l 821 1100 l 617 1331 z m 353 825 l 946 825 l 946 1015 l 115 1015 l 115 0 l 946 0 l 946 190 l 353 190 l 353 407 l 878 407 l 878 599 l 353 599 z "},"Ë":{"ha":1050,"x_min":0,"x_max":0,"o":"m 267 1192 b 383 1090 267 1133 303 1090 b 497 1192 463 1090 497 1133 b 383 1294 497 1249 463 1294 b 267 1192 303 1294 267 1249 z m 576 1192 b 692 1090 576 1133 611 1090 b 810 1192 771 1090 810 1133 b 692 1294 810 1249 771 1294 b 576 1192 611 1294 576 1249 z m 353 825 l 946 825 l 946 1015 l 115 1015 l 115 0 l 946 0 l 946 190 l 353 190 l 353 407 l 878 407 l 878 599 l 353 599 z "},"Ì":{"ha":531,"x_min":0,"x_max":0,"o":"m 365 1101 l 168 1329 l -36 1251 l 189 1101 z m 381 0 l 381 1015 l 144 1015 l 144 0 z "},"Í":{"ha":531,"x_min":0,"x_max":0,"o":"m 349 1329 l 150 1101 l 329 1101 l 553 1251 z m 381 0 l 381 1015 l 144 1015 l 144 0 z "},"Î":{"ha":531,"x_min":0,"x_max":0,"o":"m 167 1331 l -37 1100 l 158 1100 l 263 1200 l 367 1100 l 563 1100 l 358 1331 z m 381 0 l 381 1015 l 144 1015 l 144 0 z "},"Ï":{"ha":531,"x_min":0,"x_max":0,"o":"m -7 1192 b 110 1090 -7 1133 29 1090 b 224 1192 189 1090 224 1133 b 110 1294 224 1249 189 1294 b -7 1192 29 1294 -7 1249 z m 303 1192 b 418 1090 303 1133 338 1090 b 536 1192 497 1090 536 1133 b 418 1294 536 1249 497 1294 b 303 1192 338 1294 303 1249 z m 381 0 l 381 1015 l 144 1015 l 144 0 z "},"Ñ":{"ha":1242,"x_min":0,"x_max":0,"o":"m 486 1321 b 304 1147 385 1321 331 1232 l 428 1106 b 510 1182 433 1121 451 1182 b 718 1096 589 1182 593 1096 b 897 1276 824 1096 879 1210 l 772 1315 b 686 1236 765 1297 747 1236 b 486 1321 611 1236 596 1321 z m 353 578 l 1110 -32 l 1110 1014 l 874 1014 l 874 428 l 117 1047 l 117 0 l 353 0 z "},"Ò":{"ha":1319,"x_min":0,"x_max":0,"o":"m 775 1101 l 578 1329 l 374 1251 l 599 1101 z m 651 -19 b 1243 508 978 -19 1243 179 b 651 1035 1243 835 978 1035 b 61 508 325 1035 61 835 b 651 -19 61 179 325 -19 z m 651 835 b 1006 508 847 835 1006 732 b 651 179 1006 304 847 179 b 297 508 456 179 297 304 b 651 835 297 732 456 835 z "},"Ó":{"ha":1319,"x_min":0,"x_max":0,"o":"m 694 1329 l 496 1101 l 675 1101 l 899 1251 z m 651 -19 b 1243 508 978 -19 1243 179 b 651 1035 1243 835 978 1035 b 61 508 325 1035 61 835 b 651 -19 61 179 325 -19 z m 651 835 b 1006 508 847 835 1006 732 b 651 179 1006 304 847 179 b 297 508 456 179 297 304 b 651 835 297 732 456 835 z "},"Ô":{"ha":1319,"x_min":0,"x_max":0,"o":"m 558 1331 l 354 1100 l 550 1100 l 654 1200 l 758 1100 l 954 1100 l 750 1331 z m 651 -19 b 1243 508 978 -19 1243 179 b 651 1035 1243 835 978 1035 b 61 508 325 1035 61 835 b 651 -19 61 179 325 -19 z m 651 835 b 1006 508 847 835 1006 732 b 651 179 1006 304 847 179 b 297 508 456 179 297 304 b 651 835 297 732 456 835 z "},"Õ":{"ha":1319,"x_min":0,"x_max":0,"o":"m 528 1321 b 346 1147 426 1321 372 1232 l 469 1106 b 551 1182 475 1121 493 1182 b 760 1096 631 1182 635 1096 b 939 1276 865 1096 921 1210 l 814 1315 b 728 1236 807 1297 789 1236 b 528 1321 653 1236 638 1321 z m 651 -19 b 1243 508 978 -19 1243 179 b 651 1035 1243 835 978 1035 b 61 508 325 1035 61 835 b 651 -19 61 179 325 -19 z m 651 835 b 1006 508 847 835 1006 732 b 651 179 1006 304 847 179 b 297 508 456 179 297 304 b 651 835 297 732 456 835 z "},"Ö":{"ha":1319,"x_min":0,"x_max":0,"o":"m 379 1192 b 496 1090 379 1133 415 1090 b 610 1192 575 1090 610 1133 b 496 1294 610 1249 575 1294 b 379 1192 415 1294 379 1249 z m 689 1192 b 804 1090 689 1133 724 1090 b 922 1192 883 1090 922 1133 b 804 1294 922 1249 883 1294 b 689 1192 724 1294 689 1249 z m 651 -19 b 1243 508 978 -19 1243 179 b 651 1035 1243 835 978 1035 b 61 508 325 1035 61 835 b 651 -19 61 179 325 -19 z m 651 835 b 1006 508 847 835 1006 732 b 651 179 1006 304 847 179 b 297 508 456 179 297 304 b 651 835 297 732 456 835 z "},"Ù":{"ha":1231,"x_min":0,"x_max":0,"o":"m 751 1101 l 554 1329 l 350 1251 l 575 1101 z m 608 -18 b 1099 394 906 -18 1099 135 l 1099 1014 l 861 1014 l 861 394 b 608 171 861 203 701 171 b 354 394 513 171 354 203 l 354 1014 l 117 1014 l 117 394 b 608 -18 117 135 311 -18 z "},"Ú":{"ha":1231,"x_min":0,"x_max":0,"o":"m 621 1329 l 422 1101 l 601 1101 l 825 1251 z m 608 -18 b 1099 394 906 -18 1099 135 l 1099 1014 l 861 1014 l 861 394 b 608 171 861 203 701 171 b 354 394 513 171 354 203 l 354 1014 l 117 1014 l 117 394 b 608 -18 117 135 311 -18 z "},"Û":{"ha":1231,"x_min":0,"x_max":0,"o":"m 510 1331 l 306 1100 l 501 1100 l 606 1200 l 710 1100 l 906 1100 l 701 1331 z m 608 -18 b 1099 394 906 -18 1099 135 l 1099 1014 l 861 1014 l 861 394 b 608 171 861 203 701 171 b 354 394 513 171 354 203 l 354 1014 l 117 1014 l 117 394 b 608 -18 117 135 311 -18 z "},"Ü":{"ha":1231,"x_min":0,"x_max":0,"o":"m 336 1192 b 453 1090 336 1133 372 1090 b 567 1192 532 1090 567 1133 b 453 1294 567 1249 532 1294 b 336 1192 372 1294 336 1249 z m 646 1192 b 761 1090 646 1133 681 1090 b 879 1192 840 1090 879 1133 b 761 1294 879 1249 840 1294 b 646 1192 681 1294 646 1249 z m 608 -18 b 1099 394 906 -18 1099 135 l 1099 1014 l 861 1014 l 861 394 b 608 171 861 203 701 171 b 354 394 513 171 354 203 l 354 1014 l 117 1014 l 117 394 b 608 -18 117 135 311 -18 z "},"Ý":{"ha":1101,"x_min":0,"x_max":0,"o":"m 586 1329 l 388 1101 l 567 1101 l 790 1251 z m 1101 1014 l 824 1014 l 547 604 l 275 1014 l -3 1014 l 429 385 l 429 0 l 667 0 l 667 385 z "},"ø":{"ha":1042,"x_min":0,"x_max":0,"o":"m 874 622 l 932 679 l 819 793 l 749 722 b 511 778 679 758 597 778 b 64 381 265 778 64 618 b 154 132 64 282 97 199 l 100 79 l 211 -33 l 281 35 b 511 -18 347 0 426 -18 b 961 381 757 -18 961 140 b 874 622 961 475 929 557 z m 285 381 b 511 596 285 519 386 596 b 606 581 544 596 576 590 l 304 282 b 285 381 292 310 285 343 z m 511 163 b 422 176 479 163 450 167 l 721 471 b 738 381 732 444 738 414 b 511 163 738 239 639 163 z "},"ž":{"ha":849,"x_min":0,"x_max":0,"o":"m 521 850 l 725 1081 l 529 1081 l 425 981 l 321 1081 l 125 1081 l 329 850 z m 442 585 l -7 0 l 792 0 l 792 181 l 389 181 l 839 764 l 54 764 l 54 585 z "},"à":{"ha":1069,"x_min":0,"x_max":0,"o":"m 678 849 l 481 1076 l 276 999 l 501 849 z m 743 0 l 951 0 l 951 764 l 743 764 l 729 685 b 479 781 688 736 599 781 b 64 382 232 781 64 629 b 479 -17 64 135 232 -17 b 729 76 596 -17 694 33 z m 738 382 b 511 167 738 249 651 167 b 285 382 388 167 285 236 b 511 599 285 531 383 599 b 738 382 651 599 738 508 z "},"á":{"ha":1069,"x_min":0,"x_max":0,"o":"m 586 1078 l 388 850 l 567 850 l 790 1000 z m 743 0 l 951 0 l 951 764 l 743 764 l 729 685 b 479 781 688 736 599 781 b 64 382 232 781 64 629 b 479 -17 64 135 232 -17 b 729 76 596 -17 694 33 z m 738 382 b 511 167 738 249 651 167 b 285 382 388 167 285 236 b 511 599 285 531 383 599 b 738 382 651 599 738 508 z "},"â":{"ha":1069,"x_min":0,"x_max":0,"o":"m 451 1081 l 247 850 l 443 850 l 547 950 l 651 850 l 847 850 l 643 1081 z m 743 0 l 951 0 l 951 764 l 743 764 l 729 685 b 479 781 688 736 599 781 b 64 382 232 781 64 629 b 479 -17 64 135 232 -17 b 729 76 596 -17 694 33 z m 738 382 b 511 167 738 249 651 167 b 285 382 388 167 285 236 b 511 599 285 531 383 599 b 738 382 651 599 738 508 z "},"ã":{"ha":1069,"x_min":0,"x_max":0,"o":"m 418 1069 b 236 896 317 1069 263 981 l 360 854 b 442 931 365 869 383 931 b 650 844 521 931 525 844 b 829 1025 756 844 811 958 l 704 1064 b 618 985 697 1046 679 985 b 418 1069 543 985 528 1069 z m 743 0 l 951 0 l 951 764 l 743 764 l 729 685 b 479 781 688 736 599 781 b 64 382 232 781 64 629 b 479 -17 64 135 232 -17 b 729 76 596 -17 694 33 z m 738 382 b 511 167 738 249 651 167 b 285 382 388 167 285 236 b 511 599 285 531 383 599 b 738 382 651 599 738 508 z "},"ä":{"ha":1069,"x_min":0,"x_max":0,"o":"m 288 949 b 404 847 288 890 324 847 b 518 949 483 847 518 890 b 404 1051 518 1006 483 1051 b 288 949 324 1051 288 1006 z m 597 949 b 713 847 597 890 632 847 b 831 949 792 847 831 890 b 713 1051 831 1006 792 1051 b 597 949 632 1051 597 1006 z m 743 0 l 951 0 l 951 764 l 743 764 l 729 685 b 479 781 688 736 599 781 b 64 382 232 781 64 629 b 479 -17 64 135 232 -17 b 729 76 596 -17 694 33 z m 738 382 b 511 167 738 249 651 167 b 285 382 388 167 285 236 b 511 599 285 531 383 599 b 738 382 651 599 738 508 z "},"å":{"ha":1069,"x_min":0,"x_max":0,"o":"m 529 843 b 707 1001 642 843 707 914 b 529 1157 707 1086 642 1157 b 354 1001 419 1157 354 1086 b 529 843 354 914 419 843 z m 529 1044 b 581 1001 567 1044 581 1025 b 529 957 581 975 567 957 b 481 1001 494 957 481 975 b 529 1044 481 1025 494 1044 z m 743 0 l 951 0 l 951 764 l 743 764 l 729 685 b 479 781 688 736 599 781 b 64 382 232 781 64 629 b 479 -17 64 135 232 -17 b 729 76 596 -17 694 33 z m 738 382 b 511 167 738 249 651 167 b 285 382 388 167 285 236 b 511 599 285 531 383 599 b 738 382 651 599 738 508 z "},"è":{"ha":1021,"x_min":0,"x_max":0,"o":"m 629 849 l 432 1076 l 228 999 l 453 849 z m 513 -19 b 899 158 754 -19 864 104 l 725 251 b 513 163 699 213 638 163 b 288 301 468 163 301 176 l 939 301 b 943 397 939 301 943 339 b 513 776 936 661 725 776 b 64 379 358 776 64 713 b 513 -19 64 46 353 -19 z m 511 594 b 707 449 624 594 707 518 l 294 449 b 511 594 303 526 382 594 z "},"é":{"ha":1021,"x_min":0,"x_max":0,"o":"m 563 1078 l 364 850 l 543 850 l 767 1000 z m 513 -19 b 899 158 754 -19 864 104 l 725 251 b 513 163 699 213 638 163 b 288 301 468 163 301 176 l 939 301 b 943 397 939 301 943 339 b 513 776 936 661 725 776 b 64 379 358 776 64 713 b 513 -19 64 46 353 -19 z m 511 594 b 707 449 624 594 707 518 l 294 449 b 511 594 303 526 382 594 z "},"ê":{"ha":1021,"x_min":0,"x_max":0,"o":"m 415 1081 l 211 850 l 407 850 l 511 950 l 615 850 l 811 850 l 607 1081 z m 513 -19 b 899 158 754 -19 864 104 l 725 251 b 513 163 699 213 638 163 b 288 301 468 163 301 176 l 939 301 b 943 397 939 301 943 339 b 513 776 936 661 725 776 b 64 379 358 776 64 713 b 513 -19 64 46 353 -19 z m 511 594 b 707 449 624 594 707 518 l 294 449 b 511 594 303 526 382 594 z "},"ë":{"ha":1021,"x_min":0,"x_max":0,"o":"m 231 949 b 347 847 231 890 267 847 b 461 949 426 847 461 890 b 347 1051 461 1006 426 1051 b 231 949 267 1051 231 1006 z m 540 949 b 656 847 540 890 575 847 b 774 949 735 847 774 890 b 656 1051 774 1006 735 1051 b 540 949 575 1051 540 1006 z m 513 -19 b 899 158 754 -19 864 104 l 725 251 b 513 163 699 213 638 163 b 288 301 468 163 301 176 l 939 301 b 943 397 939 301 943 339 b 513 776 936 661 725 776 b 64 379 358 776 64 713 b 513 -19 64 46 353 -19 z m 511 594 b 707 449 624 594 707 518 l 294 449 b 511 594 303 526 382 594 z "},"ì":{"ha":457,"x_min":0,"x_max":0,"o":"m 335 849 l 138 1076 l -67 999 l 158 849 z m 114 0 l 339 0 l 339 763 l 114 763 z "},"í":{"ha":472,"x_min":0,"x_max":0,"o":"m 317 1078 l 118 850 l 297 850 l 521 1000 z m 114 0 l 339 0 l 339 763 l 114 763 z "},"î":{"ha":457,"x_min":0,"x_max":0,"o":"m 132 1081 l -72 850 l 124 850 l 228 950 l 332 850 l 528 850 l 324 1081 z m 114 0 l 339 0 l 339 763 l 114 763 z "},"ï":{"ha":457,"x_min":0,"x_max":0,"o":"m -46 949 b 71 847 -46 890 -10 847 b 185 949 150 847 185 890 b 71 1051 185 1006 150 1051 b -46 949 -10 1051 -46 1006 z m 264 949 b 379 847 264 890 299 847 b 497 949 458 847 497 890 b 379 1051 497 1006 458 1051 b 264 949 299 1051 264 1006 z m 114 0 l 339 0 l 339 763 l 114 763 z "},"ñ":{"ha":988,"x_min":0,"x_max":0,"o":"m 358 1069 b 176 896 257 1069 203 981 l 300 854 b 382 931 306 869 324 931 b 590 844 461 931 465 844 b 769 1025 696 844 751 958 l 644 1064 b 558 985 638 1046 619 985 b 358 1069 483 985 468 1069 z m 583 782 b 329 696 475 782 383 747 l 315 764 l 104 764 l 104 0 l 329 0 l 329 375 b 507 599 324 556 411 599 b 678 424 597 599 678 571 l 678 0 l 903 0 l 903 451 b 583 782 903 664 815 782 z "},"ò":{"ha":1042,"x_min":0,"x_max":0,"o":"m 635 849 l 438 1076 l 233 999 l 458 849 z m 511 -18 b 961 381 757 -18 961 140 b 511 778 961 618 757 778 b 64 381 265 778 64 618 b 511 -18 64 140 265 -18 z m 511 596 b 738 381 639 596 738 521 b 511 163 738 239 639 163 b 285 381 382 163 285 236 b 511 596 285 519 386 596 z "},"ó":{"ha":1042,"x_min":0,"x_max":0,"o":"m 592 1078 l 393 850 l 572 850 l 796 1000 z m 511 -18 b 961 381 757 -18 961 140 b 511 778 961 618 757 778 b 64 381 265 778 64 618 b 511 -18 64 140 265 -18 z m 511 596 b 738 381 639 596 738 521 b 511 163 738 239 639 163 b 285 381 382 163 285 236 b 511 596 285 519 386 596 z "},"ô":{"ha":1042,"x_min":0,"x_max":0,"o":"m 415 1081 l 211 850 l 407 850 l 511 950 l 615 850 l 811 850 l 607 1081 z m 511 -18 b 961 381 757 -18 961 140 b 511 778 961 618 757 778 b 64 381 265 778 64 618 b 511 -18 64 140 265 -18 z m 511 596 b 738 381 639 596 738 521 b 511 163 738 239 639 163 b 285 381 382 163 285 236 b 511 596 285 519 386 596 z "},"õ":{"ha":1042,"x_min":0,"x_max":0,"o":"m 404 1069 b 222 896 303 1069 249 981 l 346 854 b 428 931 351 869 369 931 b 636 844 507 931 511 844 b 815 1025 742 844 797 958 l 690 1064 b 604 985 683 1046 665 985 b 404 1069 529 985 514 1069 z m 511 -18 b 961 381 757 -18 961 140 b 511 778 961 618 757 778 b 64 381 265 778 64 618 b 511 -18 64 140 265 -18 z m 511 596 b 738 381 639 596 738 521 b 511 163 738 239 639 163 b 285 381 382 163 285 236 b 511 596 285 519 386 596 z "},"ö":{"ha":1042,"x_min":0,"x_max":0,"o":"m 240 949 b 357 847 240 890 276 847 b 471 949 436 847 471 890 b 357 1051 471 1006 436 1051 b 240 949 276 1051 240 1006 z m 550 949 b 665 847 550 890 585 847 b 783 949 744 847 783 890 b 665 1051 783 1006 744 1051 b 550 949 585 1051 550 1006 z m 511 -18 b 961 381 757 -18 961 140 b 511 778 961 618 757 778 b 64 381 265 778 64 618 b 511 -18 64 140 265 -18 z m 511 596 b 738 381 639 596 738 521 b 511 163 738 239 639 163 b 285 381 382 163 285 236 b 511 596 285 519 386 596 z "},"ù":{"ha":988,"x_min":0,"x_max":0,"o":"m 600 849 l 403 1076 l 199 999 l 424 849 z m 424 -18 b 678 68 532 -18 624 17 l 692 0 l 903 0 l 903 764 l 678 764 l 678 389 b 500 165 683 208 596 165 b 329 340 410 165 329 193 l 329 764 l 104 764 l 104 313 b 424 -18 104 100 192 -18 z "},"ú":{"ha":988,"x_min":0,"x_max":0,"o":"m 536 1078 l 338 850 l 517 850 l 740 1000 z m 424 -18 b 678 68 532 -18 624 17 l 692 0 l 903 0 l 903 764 l 678 764 l 678 389 b 500 165 683 208 596 165 b 329 340 410 165 329 193 l 329 764 l 104 764 l 104 313 b 424 -18 104 100 192 -18 z "},"û":{"ha":988,"x_min":0,"x_max":0,"o":"m 392 1081 l 188 850 l 383 850 l 488 950 l 592 850 l 788 850 l 583 1081 z m 424 -18 b 678 68 532 -18 624 17 l 692 0 l 903 0 l 903 764 l 678 764 l 678 389 b 500 165 683 208 596 165 b 329 340 410 165 329 193 l 329 764 l 104 764 l 104 313 b 424 -18 104 100 192 -18 z "},"ü":{"ha":988,"x_min":0,"x_max":0,"o":"m 208 949 b 325 847 208 890 244 847 b 439 949 404 847 439 890 b 325 1051 439 1006 404 1051 b 208 949 244 1051 208 1006 z m 518 949 b 633 847 518 890 553 847 b 751 949 713 847 751 890 b 633 1051 751 1006 713 1051 b 518 949 553 1051 518 1006 z m 424 -18 b 678 68 532 -18 624 17 l 692 0 l 903 0 l 903 764 l 678 764 l 678 389 b 500 165 683 208 596 165 b 329 340 410 165 329 193 l 329 764 l 104 764 l 104 313 b 424 -18 104 100 192 -18 z "},"ý":{"ha":964,"x_min":0,"x_max":0,"o":"m 536 1078 l 338 850 l 517 850 l 740 1000 z m 144 -321 b 286 -331 188 -328 239 -331 b 535 -135 414 -331 481 -260 b 929 764 636 89 929 764 l 674 764 l 482 275 l 274 764 l 14 764 l 368 28 b 331 -62 368 28 350 -19 b 246 -151 318 -89 296 -147 b 154 -144 217 -154 183 -150 z "},"ÿ":{"ha":964,"x_min":0,"x_max":0,"o":"m 197 949 b 314 847 197 890 233 847 b 428 949 393 847 428 890 b 314 1051 428 1006 393 1051 b 197 949 233 1051 197 1006 z m 507 949 b 622 847 507 890 542 847 b 740 949 701 847 740 890 b 622 1051 740 1006 701 1051 b 507 949 542 1051 507 1006 z m 144 -321 b 286 -331 188 -328 239 -331 b 535 -135 414 -331 481 -260 b 929 764 636 89 929 764 l 674 764 l 482 275 l 274 764 l 14 764 l 368 28 b 331 -62 368 28 350 -19 b 246 -151 318 -89 296 -147 b 154 -144 217 -154 183 -150 z "},"ç":{"ha":975,"x_min":0,"x_max":0,"o":"m 514 164 b 288 379 376 164 288 235 b 513 594 288 522 375 594 b 715 481 601 594 679 557 l 918 554 b 513 776 850 697 694 776 b 64 379 260 776 64 618 b 443 -15 64 164 225 13 l 394 -112 l 419 -151 b 546 -175 464 -143 543 -140 b 501 -207 547 -193 535 -207 b 411 -186 457 -207 439 -197 l 369 -254 b 511 -301 369 -254 422 -300 b 679 -178 556 -301 671 -290 b 594 -58 685 -125 653 -72 b 547 -51 578 -54 560 -51 l 565 -18 b 914 206 736 -6 856 69 l 724 275 b 514 164 683 196 603 164 z "},"š":{"ha":858,"x_min":0,"x_max":0,"o":"m 508 850 l 713 1081 l 517 1081 l 413 981 l 308 1081 l 113 1081 l 317 850 z m 444 -18 b 783 231 660 -18 783 58 b 496 461 783 442 593 446 b 299 540 411 475 299 475 b 407 597 299 592 363 597 b 640 526 499 597 579 560 l 757 668 b 414 778 650 743 544 778 b 74 536 335 778 74 774 b 400 296 74 331 288 314 b 560 232 444 289 560 297 b 442 164 560 179 510 164 b 174 246 342 164 239 206 l 57 101 b 444 -18 147 35 267 -18 z "},"Þ":{"ha":1108,"x_min":0,"x_max":0,"o":"m 639 872 l 354 872 l 354 1015 l 117 1015 l 117 0 l 354 0 l 354 144 l 639 144 b 1035 508 892 144 1035 294 b 639 872 1035 721 892 872 z m 625 335 l 354 335 l 354 681 l 625 681 b 796 508 747 681 796 592 b 625 335 796 424 747 335 z "},"þ":{"ha":1069,"x_min":0,"x_max":0,"o":"m 325 -247 l 325 76 b 575 -17 360 33 458 -17 b 990 382 836 -17 990 135 b 575 781 990 629 836 781 b 325 685 456 781 367 736 l 325 1050 l 103 1050 l 103 -247 z m 317 382 b 543 599 317 508 403 599 b 769 382 685 599 769 531 b 543 167 769 236 681 167 b 317 382 403 167 317 249 z "},"Ð":{"ha":1272,"x_min":0,"x_max":0,"o":"m 644 1015 l 158 1015 l 158 596 l 40 596 l 40 408 l 158 408 l 158 0 l 644 0 b 1183 508 943 0 1183 118 b 644 1015 1183 889 940 1015 z m 611 190 l 396 190 l 396 408 l 593 408 l 593 596 l 396 596 l 396 824 l 611 824 b 943 507 760 824 943 797 b 611 190 943 217 761 190 z "},"ð":{"ha":1101,"x_min":0,"x_max":0,"o":"m 713 892 l 793 921 l 742 1038 b 592 983 682 1017 638 1000 b 464 1065 549 1010 506 1042 l 278 976 l 374 908 l 264 871 l 318 754 l 503 819 b 635 679 543 790 594 744 b 468 708 586 699 526 708 b 83 360 243 708 83 561 b 501 -18 83 63 318 -18 b 949 386 799 -18 949 138 b 713 892 949 594 832 782 z m 517 167 b 300 353 400 167 300 224 b 517 539 300 478 378 539 b 732 353 640 539 732 481 b 517 167 732 226 640 167 z "},"ı":{"ha":457,"x_min":0,"x_max":0,"o":"m 114 0 l 339 0 l 339 763 l 114 763 z "},"Ł":{"ha":1018,"x_min":0,"x_max":0,"o":"m 176 524 l 39 456 l 39 246 l 176 314 l 176 0 l 990 0 l 990 190 l 415 190 l 415 432 l 754 603 l 754 815 l 415 643 l 415 1015 l 176 1015 z "},"ł":{"ha":504,"x_min":0,"x_max":0,"o":"m 354 586 l 449 635 l 449 847 l 354 799 l 354 1049 l 129 1049 l 129 683 l 60 647 l 60 436 l 129 472 l 129 179 b 393 -11 129 18 235 -11 b 449 -8 419 -11 436 -10 l 449 171 b 354 267 346 165 354 226 z "},"Ż":{"ha":1094,"x_min":0,"x_max":0,"o":"m 424 1190 b 542 1089 424 1132 460 1089 b 656 1190 621 1089 656 1132 b 542 1294 656 1247 621 1294 b 424 1190 460 1294 424 1247 z m 432 190 l 1079 1014 l 74 1014 l 74 824 l 643 824 l -1 0 l 1026 0 l 1026 190 z "},"Ą":{"ha":1207,"x_min":0,"x_max":0,"o":"m 1235 -93 b 1090 -65 1214 -104 1096 -146 b 1188 0 1088 -22 1143 0 l 1199 0 l 597 1047 l -4 0 l 257 0 l 340 156 l 851 156 l 939 0 b 929 -62 932 -21 929 -42 b 1008 -214 929 -121 961 -179 b 1150 -257 1044 -239 1099 -257 b 1199 -254 1164 -257 1183 -257 b 1301 -225 1246 -247 1299 -226 z m 457 343 l 597 608 l 738 343 z "},"ą":{"ha":1069,"x_min":0,"x_max":0,"o":"m 1007 -93 b 863 -65 986 -104 868 -146 b 951 0 860 -22 906 0 l 951 764 l 743 764 l 729 685 b 479 781 688 736 599 781 b 64 382 232 781 64 629 b 479 -17 64 135 232 -17 b 729 76 596 -17 694 33 l 740 18 b 710 -89 719 -11 710 -47 b 775 -214 710 -139 729 -179 b 922 -257 811 -239 869 -257 b 971 -254 936 -257 956 -257 b 1074 -225 1018 -247 1071 -226 z m 511 167 b 285 382 388 167 285 236 b 511 599 285 531 383 599 b 738 382 651 599 738 508 b 511 167 738 249 651 167 z "},"Ć":{"ha":1214,"x_min":0,"x_max":0,"o":"m 644 1329 l 446 1101 l 625 1101 l 849 1251 z m 1167 261 l 946 340 b 646 179 892 251 768 179 b 294 507 451 179 294 275 b 646 833 294 732 451 833 b 946 675 768 833 892 763 l 1167 754 b 646 1032 1075 919 917 1032 b 56 507 321 1032 56 833 b 646 -19 56 158 321 -19 b 1167 261 917 -19 1075 93 z "},"ć":{"ha":975,"x_min":0,"x_max":0,"o":"m 546 1078 l 347 850 l 526 850 l 750 1000 z m 514 -19 b 914 206 711 -19 850 56 l 724 275 b 514 164 683 196 603 164 b 288 379 376 164 288 235 b 513 594 288 522 375 594 b 715 481 601 594 679 557 l 918 554 b 513 776 850 697 694 776 b 64 379 260 776 64 618 b 514 -19 64 140 261 -19 z "},"Ę":{"ha":1050,"x_min":0,"x_max":0,"o":"m 940 -93 b 796 -65 919 -104 803 -146 b 894 0 793 -22 849 0 l 946 0 l 946 190 l 353 190 l 353 407 l 878 407 l 878 599 l 353 599 l 353 825 l 946 825 l 946 1015 l 115 1015 l 115 0 l 668 0 b 640 -93 651 -21 640 -49 b 857 -257 640 -200 749 -257 b 904 -254 869 -257 889 -257 b 1008 -225 953 -247 1006 -226 z "},"ę":{"ha":1021,"x_min":0,"x_max":0,"o":"m 943 397 b 513 776 936 661 725 776 b 64 379 358 776 64 713 b 375 -4 64 129 226 29 b 346 -93 358 -26 346 -54 b 563 -257 346 -200 454 -257 b 611 -254 576 -257 596 -257 b 714 -225 658 -247 711 -226 l 646 -93 b 551 -117 633 -100 588 -118 b 501 -56 513 -114 493 -87 b 540 -19 507 -33 524 -24 b 899 158 763 -10 865 107 l 725 251 b 513 163 699 213 638 163 b 288 301 468 163 301 176 l 939 301 b 943 397 939 301 943 339 z m 294 449 b 511 594 303 526 382 594 b 707 449 624 594 707 518 z "},"Ń":{"ha":1242,"x_min":0,"x_max":0,"o":"m 622 1329 l 424 1101 l 603 1101 l 826 1251 z m 353 578 l 1110 -32 l 1110 1014 l 874 1014 l 874 428 l 117 1047 l 117 0 l 353 0 z "},"ń":{"ha":988,"x_min":0,"x_max":0,"o":"m 503 1078 l 304 850 l 483 850 l 707 1000 z m 583 782 b 329 696 475 782 383 747 l 315 764 l 104 764 l 104 0 l 329 0 l 329 375 b 507 599 324 556 411 599 b 678 424 597 599 678 571 l 678 0 l 903 0 l 903 451 b 583 782 903 664 815 782 z "},"Ś":{"ha":1061,"x_min":0,"x_max":0,"o":"m 550 1329 l 351 1101 l 531 1101 l 754 1251 z m 189 300 l 68 139 b 563 -19 169 58 325 -19 b 999 296 822 -19 999 71 b 538 624 999 579 733 589 b 319 732 438 642 319 633 b 508 832 319 832 439 832 b 824 733 615 832 729 796 l 951 894 b 518 1031 831 976 710 1031 b 82 724 324 1031 82 965 b 518 413 82 444 379 432 b 764 290 668 392 764 382 b 560 178 764 204 690 178 b 189 300 433 178 269 239 z "},"ś":{"ha":858,"x_min":0,"x_max":0,"o":"m 464 1078 l 265 850 l 444 850 l 668 1000 z m 444 -18 b 783 231 660 -18 783 58 b 496 461 783 442 593 446 b 299 540 411 475 299 475 b 407 597 299 592 363 597 b 640 526 499 597 579 560 l 757 668 b 414 778 650 743 544 778 b 74 536 335 778 74 774 b 400 296 74 331 288 314 b 560 232 444 289 560 297 b 442 164 560 179 510 164 b 174 246 342 164 239 206 l 57 101 b 444 -18 147 35 267 -18 z "},"Ź":{"ha":1094,"x_min":0,"x_max":0,"o":"m 593 1329 l 394 1101 l 574 1101 l 797 1251 z m 432 190 l 1079 1014 l 74 1014 l 74 824 l 643 824 l -1 0 l 1026 0 l 1026 190 z "},"ź":{"ha":849,"x_min":0,"x_max":0,"o":"m 469 1078 l 271 850 l 450 850 l 674 1000 z m 442 585 l -7 0 l 792 0 l 792 181 l 389 181 l 839 764 l 54 764 l 54 585 z "},"ż":{"ha":849,"x_min":0,"x_max":0,"o":"m 317 947 b 435 846 317 889 353 846 b 549 947 514 846 549 889 b 435 1051 549 1004 514 1051 b 317 947 353 1051 317 1004 z m 442 585 l -7 0 l 792 0 l 792 181 l 389 181 l 839 764 l 54 764 l 54 585 z "},"İ":{"ha":531,"x_min":0,"x_max":0,"o":"m 393 1189 b 264 1071 393 1124 335 1071 b 132 1189 192 1071 132 1124 b 264 1306 132 1253 192 1306 b 393 1189 335 1306 393 1253 z m 381 0 l 381 1015 l 144 1015 l 144 0 z "},"Ğ":{"ha":1292,"x_min":0,"x_max":0,"o":"m 924 1321 l 764 1321 b 633 1235 747 1274 707 1235 b 500 1321 576 1235 519 1257 l 338 1321 b 633 1092 361 1185 479 1092 b 924 1321 786 1092 900 1182 z m 1161 590 l 617 590 l 617 400 l 942 400 l 942 318 b 649 179 893 239 767 179 b 289 508 451 179 289 301 b 649 836 289 732 451 836 b 951 683 775 836 885 771 l 1139 801 b 649 1033 1031 942 850 1033 b 60 508 325 1033 60 836 b 649 -18 60 179 325 -18 b 1161 247 868 -18 1074 89 z "},"ğ":{"ha":1069,"x_min":0,"x_max":0,"o":"m 818 1075 l 658 1075 b 528 989 642 1028 601 989 b 394 1075 471 989 414 1011 l 232 1075 b 528 846 256 939 374 846 b 818 1075 681 846 794 936 z m 951 68 l 951 764 l 743 764 l 729 710 b 499 778 671 754 594 778 b 64 394 242 778 64 624 b 499 13 64 167 242 13 b 729 81 594 13 671 36 l 729 68 b 529 -151 729 -3 722 -147 b 249 -67 414 -154 314 -114 l 139 -214 b 533 -329 244 -290 379 -329 b 951 68 813 -329 951 -151 z m 511 188 b 285 394 383 188 285 257 b 511 601 285 529 388 601 b 738 394 639 601 738 531 b 511 188 738 260 639 188 z "},"Ş":{"ha":1061,"x_min":0,"x_max":0,"o":"m 999 296 b 538 624 999 579 733 589 b 319 732 438 642 319 633 b 508 832 319 832 439 832 b 824 733 615 832 729 796 l 951 894 b 518 1031 831 976 710 1031 b 82 724 324 1031 82 965 b 518 413 82 444 379 432 b 764 290 668 392 764 382 b 560 178 764 204 690 178 b 189 300 433 178 269 239 l 68 139 b 475 -15 157 68 286 0 l 426 -114 l 451 -153 b 578 -176 496 -144 575 -142 b 533 -208 579 -194 567 -208 b 443 -187 489 -208 471 -199 l 401 -256 b 543 -303 401 -256 454 -301 b 711 -179 588 -303 703 -292 b 626 -60 717 -126 685 -74 b 579 -53 610 -56 592 -53 l 597 -19 b 999 296 838 -11 999 81 z "},"ş":{"ha":858,"x_min":0,"x_max":0,"o":"m 783 231 b 496 461 783 442 593 446 b 299 540 411 475 299 475 b 407 597 299 592 363 597 b 640 526 499 597 579 560 l 757 668 b 414 778 650 743 544 778 b 74 536 335 778 74 774 b 400 296 74 331 288 314 b 560 232 444 289 560 297 b 442 164 560 179 510 164 b 174 246 342 164 239 206 l 57 101 b 365 -14 133 44 231 -1 l 317 -114 l 342 -153 b 468 -176 386 -144 465 -142 b 424 -208 469 -194 457 -208 b 333 -187 379 -208 361 -199 l 292 -256 b 433 -303 292 -256 344 -301 b 601 -179 478 -303 593 -292 b 517 -60 607 -126 575 -74 b 469 -53 500 -56 482 -53 l 489 -17 b 783 231 676 -7 783 71 z "},"B":{"ha":1054,"x_min":0,"x_max":0,"o":"m 929 733 b 571 1015 929 953 785 1015 l 115 1015 l 115 0 l 589 0 b 974 294 788 0 974 49 b 790 531 974 432 888 500 b 929 733 871 561 929 617 z m 354 613 l 354 825 l 578 825 b 690 725 640 825 690 793 b 576 613 690 657 660 613 z m 589 190 l 354 190 l 354 421 l 585 421 b 736 306 688 421 736 392 b 589 190 736 225 688 190 z "},"C":{"ha":1214,"x_min":0,"x_max":0,"o":"m 1167 261 l 946 340 b 646 179 892 251 768 179 b 294 507 451 179 294 275 b 646 833 294 732 451 833 b 946 675 768 833 892 763 l 1167 754 b 646 1032 1075 919 917 1032 b 56 507 321 1032 56 833 b 646 -19 56 158 321 -19 b 1167 261 917 -19 1075 93 z "},"Ű":{"ha":1231,"x_min":0,"x_max":0,"o":"m 515 1329 l 314 1101 l 488 1101 l 703 1251 z m 801 1329 l 603 1101 l 776 1101 l 989 1251 z m 608 -18 b 1099 394 906 -18 1099 135 l 1099 1014 l 861 1014 l 861 394 b 608 171 861 203 701 171 b 354 394 513 171 354 203 l 354 1014 l 117 1014 l 117 394 b 608 -18 117 135 311 -18 z "},"ű":{"ha":988,"x_min":0,"x_max":0,"o":"m 393 1076 l 192 849 l 365 849 l 581 999 z m 679 1076 l 481 849 l 654 849 l 867 999 z m 424 -18 b 678 68 532 -18 624 17 l 692 0 l 903 0 l 903 764 l 678 764 l 678 389 b 500 165 683 208 596 165 b 329 340 410 165 329 193 l 329 764 l 104 764 l 104 313 b 424 -18 104 100 192 -18 z "},"ő":{"ha":1042,"x_min":0,"x_max":0,"o":"m 424 1076 l 222 849 l 396 849 l 611 999 z m 710 1076 l 511 849 l 685 849 l 897 999 z m 511 -18 b 961 381 757 -18 961 140 b 511 778 961 618 757 778 b 64 381 265 778 64 618 b 511 -18 64 140 265 -18 z m 511 596 b 738 381 639 596 738 521 b 511 163 738 239 639 163 b 285 381 382 163 285 236 b 511 596 285 519 386 596 z "},"Ő":{"ha":1319,"x_min":0,"x_max":0,"o":"m 576 1329 l 375 1101 l 549 1101 l 764 1251 z m 863 1329 l 664 1101 l 838 1101 l 1050 1251 z m 651 -19 b 1243 508 978 -19 1243 179 b 651 1035 1243 835 978 1035 b 61 508 325 1035 61 835 b 651 -19 61 179 325 -19 z m 651 835 b 1006 508 847 835 1006 732 b 651 179 1006 304 847 179 b 297 508 456 179 297 304 b 651 835 297 732 456 835 z "},"Đ":{"ha":1272,"x_min":0,"x_max":0,"o":"m 644 1015 l 158 1015 l 158 596 l 40 596 l 40 408 l 158 408 l 158 0 l 644 0 b 1183 508 943 0 1183 118 b 644 1015 1183 889 940 1015 z m 611 190 l 396 190 l 396 408 l 593 408 l 593 596 l 396 596 l 396 824 l 611 824 b 943 507 760 824 943 797 b 611 190 943 217 761 190 z "},"đ":{"ha":1069,"x_min":0,"x_max":0,"o":"m 1029 975 l 951 975 l 951 1050 l 729 1050 l 729 975 l 599 975 l 599 817 l 729 817 l 729 685 b 479 781 688 736 599 781 b 64 382 232 781 64 629 b 479 -17 64 135 232 -17 b 729 76 596 -17 694 33 l 743 0 l 951 0 l 951 817 l 1029 817 z m 511 167 b 285 382 388 167 285 236 b 511 599 285 531 383 599 b 738 382 651 599 738 508 b 511 167 738 249 651 167 z "},"Ť":{"ha":971,"x_min":0,"x_max":0,"o":"m 601 1101 l 806 1332 l 610 1332 l 506 1232 l 401 1332 l 206 1332 l 410 1101 z m 942 825 l 942 1015 l 67 1015 l 67 825 l 386 825 l 386 0 l 624 0 l 624 825 z "},"ť":{"ha":746,"x_min":0,"x_max":0,"o":"m 806 926 b 676 1033 800 996 751 1035 b 558 917 594 1032 558 981 b 671 811 558 860 590 811 b 594 672 658 776 619 708 l 699 672 b 806 926 756 740 814 829 z m 381 594 l 546 594 l 546 776 l 381 776 l 381 981 l 186 981 l 158 776 l 58 776 l 58 594 l 158 594 l 158 193 b 439 -11 158 32 265 -11 b 540 -6 471 -11 513 -8 l 540 168 l 483 168 b 381 281 372 168 381 239 z "},"ľ":{"ha":631,"x_min":0,"x_max":0,"o":"m 661 926 b 532 1033 656 996 607 1035 b 414 917 450 1032 414 981 b 526 811 414 860 446 811 b 450 672 514 776 475 708 l 554 672 b 661 926 611 740 669 829 z m 381 0 l 381 1015 l 144 1015 l 144 0 z "},"Ľ":{"ha":957,"x_min":0,"x_max":0,"o":"m 758 926 b 629 1033 753 996 704 1035 b 511 917 547 1032 511 981 b 624 811 511 860 543 811 b 547 672 611 776 572 708 l 651 672 b 758 926 708 740 767 829 z m 929 190 l 354 190 l 354 1015 l 115 1015 l 115 0 l 929 0 z "},"Ŕ":{"ha":1093,"x_min":0,"x_max":0,"o":"m 547 1329 l 349 1101 l 528 1101 l 751 1251 z m 353 0 l 353 317 l 514 317 b 776 0 604 206 688 104 l 1061 0 b 776 340 972 108 871 231 b 1000 663 910 383 1000 483 b 604 1015 1000 900 840 1015 l 117 1015 l 117 0 z m 353 507 l 353 825 l 604 825 b 765 663 744 825 765 732 b 604 507 765 540 678 507 z "},"ŕ":{"ha":636,"x_min":0,"x_max":0,"o":"m 313 1078 l 114 850 l 293 850 l 517 1000 z m 606 575 l 606 778 b 324 663 547 779 408 765 l 310 764 l 100 764 l 100 0 l 324 0 l 324 338 b 606 575 324 569 551 579 z "},"Ă":{"ha":1207,"x_min":0,"x_max":0,"o":"m 892 1321 l 732 1321 b 601 1235 715 1274 675 1235 b 468 1321 544 1235 488 1257 l 306 1321 b 601 1092 329 1185 447 1092 b 892 1321 754 1092 868 1182 z m -4 0 l 257 0 l 340 156 l 851 156 l 939 0 l 1199 0 l 597 1047 z m 457 343 l 597 608 l 738 343 z "},"ă":{"ha":1069,"x_min":0,"x_max":0,"o":"m 849 1075 l 689 1075 b 558 989 672 1028 632 989 b 425 1075 501 989 444 1011 l 263 1075 b 558 846 286 939 404 846 b 849 1075 711 846 825 936 z m 743 0 l 951 0 l 951 764 l 743 764 l 729 685 b 479 781 688 736 599 781 b 64 382 232 781 64 629 b 479 -17 64 135 232 -17 b 729 76 596 -17 694 33 z m 738 382 b 511 167 738 249 651 167 b 285 382 388 167 285 236 b 511 599 285 531 383 599 b 738 382 651 599 738 508 z "},"Ř":{"ha":1093,"x_min":0,"x_max":0,"o":"m 589 1101 l 793 1332 l 597 1332 l 493 1232 l 389 1332 l 193 1332 l 397 1101 z m 353 0 l 353 317 l 514 317 b 776 0 604 206 688 104 l 1061 0 b 776 340 972 108 871 231 b 1000 663 910 383 1000 483 b 604 1015 1000 900 840 1015 l 117 1015 l 117 0 z m 353 507 l 353 825 l 604 825 b 765 663 744 825 765 732 b 604 507 765 540 678 507 z "},"ř":{"ha":636,"x_min":0,"x_max":0,"o":"m 421 850 l 625 1081 l 429 1081 l 325 981 l 221 1081 l 25 1081 l 229 850 z m 606 575 l 606 778 b 324 663 547 779 408 765 l 310 764 l 100 764 l 100 0 l 324 0 l 324 338 b 606 575 324 569 551 579 z "},"Ĺ":{"ha":957,"x_min":0,"x_max":0,"o":"m 324 1329 l 125 1101 l 304 1101 l 528 1251 z m 929 190 l 354 190 l 354 1015 l 115 1015 l 115 0 l 929 0 z "},"ĺ":{"ha":442,"x_min":0,"x_max":0,"o":"m 303 1329 l 104 1101 l 283 1101 l 507 1251 z m 104 179 b 368 -11 104 18 210 -11 b 424 -8 394 -11 411 -10 l 424 171 b 329 267 321 165 329 226 l 329 1049 l 104 1049 z "},"Č":{"ha":1214,"x_min":0,"x_max":0,"o":"m 747 1101 l 951 1332 l 756 1332 l 651 1232 l 547 1332 l 351 1332 l 556 1101 z m 1167 261 l 946 340 b 646 179 892 251 768 179 b 294 507 451 179 294 275 b 646 833 294 732 451 833 b 946 675 768 833 892 763 l 1167 754 b 646 1032 1075 919 917 1032 b 56 507 321 1032 56 833 b 646 -19 56 158 321 -19 b 1167 261 917 -19 1075 93 z "},"č":{"ha":975,"x_min":0,"x_max":0,"o":"m 608 850 l 813 1081 l 617 1081 l 513 981 l 408 1081 l 213 1081 l 417 850 z m 514 -19 b 914 206 711 -19 850 56 l 724 275 b 514 164 683 196 603 164 b 288 379 376 164 288 235 b 513 594 288 522 375 594 b 715 481 601 594 679 557 l 918 554 b 513 776 850 697 694 776 b 64 379 260 776 64 618 b 514 -19 64 140 261 -19 z "},"Ě":{"ha":1050,"x_min":0,"x_max":0,"o":"m 636 1101 l 840 1332 l 644 1332 l 540 1232 l 436 1332 l 240 1332 l 444 1101 z m 353 825 l 946 825 l 946 1015 l 115 1015 l 115 0 l 946 0 l 946 190 l 353 190 l 353 407 l 878 407 l 878 599 l 353 599 z "},"ě":{"ha":1021,"x_min":0,"x_max":0,"o":"m 606 850 l 810 1081 l 614 1081 l 510 981 l 406 1081 l 210 1081 l 414 850 z m 513 -19 b 899 158 754 -19 864 104 l 725 251 b 513 163 699 213 638 163 b 288 301 468 163 301 176 l 939 301 b 943 397 939 301 943 339 b 513 776 936 661 725 776 b 64 379 358 776 64 713 b 513 -19 64 46 353 -19 z m 511 594 b 707 449 624 594 707 518 l 294 449 b 511 594 303 526 382 594 z "},"Ď":{"ha":1225,"x_min":0,"x_max":0,"o":"m 653 1101 l 857 1332 l 661 1332 l 557 1232 l 453 1332 l 257 1332 l 461 1101 z m 117 0 l 603 0 b 1142 508 901 0 1142 118 b 603 1015 1142 889 899 1015 l 117 1015 z m 354 190 l 354 824 l 569 824 b 901 507 718 824 901 797 b 569 190 901 217 719 190 z "},"Ň":{"ha":1242,"x_min":0,"x_max":0,"o":"m 706 1101 l 910 1332 l 714 1332 l 610 1232 l 506 1332 l 310 1332 l 514 1101 z m 353 578 l 1110 -32 l 1110 1014 l 874 1014 l 874 428 l 117 1047 l 117 0 l 353 0 z "},"ň":{"ha":988,"x_min":0,"x_max":0,"o":"m 596 850 l 800 1081 l 604 1081 l 500 981 l 396 1081 l 200 1081 l 404 850 z m 583 782 b 329 696 475 782 383 747 l 315 764 l 104 764 l 104 0 l 329 0 l 329 375 b 507 599 324 556 411 599 b 678 424 597 599 678 571 l 678 0 l 903 0 l 903 451 b 583 782 903 664 815 782 z "},"Ů":{"ha":1231,"x_min":0,"x_max":0,"o":"m 604 1099 b 782 1257 717 1099 782 1169 b 604 1413 782 1342 717 1413 b 429 1257 494 1413 429 1342 b 604 1099 429 1169 494 1099 z m 604 1300 b 656 1257 642 1300 656 1281 b 604 1213 656 1231 642 1213 b 556 1257 569 1213 556 1231 b 604 1300 556 1281 569 1300 z m 608 -18 b 1099 394 906 -18 1099 135 l 1099 1014 l 861 1014 l 861 394 b 608 171 861 203 701 171 b 354 394 513 171 354 203 l 354 1014 l 117 1014 l 117 394 b 608 -18 117 135 311 -18 z "},"ů":{"ha":988,"x_min":0,"x_max":0,"o":"m 496 849 b 674 1007 608 849 674 919 b 496 1163 674 1092 608 1163 b 321 1007 386 1163 321 1092 b 496 849 321 919 386 849 z m 496 1050 b 547 1007 533 1050 547 1031 b 496 963 547 981 533 963 b 447 1007 461 963 447 981 b 496 1050 447 1031 461 1050 z m 424 -18 b 678 68 532 -18 624 17 l 692 0 l 903 0 l 903 764 l 678 764 l 678 389 b 500 165 683 208 596 165 b 329 340 410 165 329 193 l 329 764 l 104 764 l 104 313 b 424 -18 104 100 192 -18 z "},"Ţ":{"ha":971,"x_min":0,"x_max":0,"o":"m 942 825 l 942 1015 l 67 1015 l 67 825 l 386 825 l 386 0 l 624 0 l 624 825 z m 626 -160 b 497 -53 621 -90 572 -51 b 379 -169 415 -54 379 -106 b 492 -275 379 -226 411 -275 b 415 -414 479 -310 440 -378 l 519 -414 b 626 -160 576 -346 635 -257 z "},"ţ":{"ha":615,"x_min":0,"x_max":0,"o":"m 381 594 l 546 594 l 546 776 l 381 776 l 381 981 l 186 981 l 158 776 l 58 776 l 58 594 l 158 594 l 158 193 b 439 -11 158 32 265 -11 b 540 -6 471 -11 513 -8 l 540 168 l 483 168 b 381 281 372 168 381 239 z m 463 -160 b 333 -53 457 -90 408 -51 b 215 -169 251 -54 215 -106 b 328 -275 215 -226 247 -275 b 251 -414 315 -310 276 -378 l 356 -414 b 463 -160 413 -346 471 -257 z "},"ď":{"ha":1183,"x_min":0,"x_max":0,"o":"m 743 0 l 951 0 l 951 1050 l 729 1050 l 729 685 b 479 781 688 736 599 781 b 64 382 232 781 64 629 b 479 -17 64 135 232 -17 b 729 76 596 -17 694 33 z m 1228 926 b 1099 1033 1222 996 1174 1035 b 981 917 1017 1032 981 981 b 1093 811 981 860 1013 811 b 1017 672 1081 776 1042 708 l 1121 672 b 1228 926 1178 740 1236 829 z m 738 382 b 511 167 738 249 651 167 b 285 382 388 167 285 236 b 511 599 285 531 383 599 b 738 382 651 599 738 508 z "},"Ā":{"ha":1207,"x_min":0,"x_max":0,"o":"m 846 1103 l 846 1250 l 353 1250 l 353 1103 z m -4 0 l 257 0 l 340 156 l 851 156 l 939 0 l 1199 0 l 597 1047 z m 457 343 l 597 608 l 738 343 z "},"ā":{"ha":1069,"x_min":0,"x_max":0,"o":"m 803 851 l 803 999 l 310 999 l 310 851 z m 743 0 l 951 0 l 951 764 l 743 764 l 729 685 b 479 781 688 736 599 781 b 64 382 232 781 64 629 b 479 -17 64 135 232 -17 b 729 76 596 -17 694 33 z m 738 382 b 511 167 738 249 651 167 b 285 382 388 167 285 236 b 511 599 285 531 383 599 b 738 382 651 599 738 508 z "},"Ē":{"ha":1050,"x_min":0,"x_max":0,"o":"m 786 1103 l 786 1250 l 293 1250 l 293 1103 z m 353 825 l 946 825 l 946 1015 l 115 1015 l 115 0 l 946 0 l 946 190 l 353 190 l 353 407 l 878 407 l 878 599 l 353 599 z "},"ē":{"ha":1021,"x_min":0,"x_max":0,"o":"m 775 851 l 775 999 l 282 999 l 282 851 z m 513 -19 b 899 158 754 -19 864 104 l 725 251 b 513 163 699 213 638 163 b 288 301 468 163 301 176 l 939 301 b 943 397 939 301 943 339 b 513 776 936 661 725 776 b 64 379 358 776 64 713 b 513 -19 64 46 353 -19 z m 511 594 b 707 449 624 594 707 518 l 294 449 b 511 594 303 526 382 594 z "},"Ė":{"ha":1050,"x_min":0,"x_max":0,"o":"m 426 1190 b 544 1089 426 1132 463 1089 b 658 1190 624 1089 658 1132 b 544 1294 658 1247 624 1294 b 426 1190 463 1294 426 1247 z m 353 825 l 946 825 l 946 1015 l 115 1015 l 115 0 l 946 0 l 946 190 l 353 190 l 353 407 l 878 407 l 878 599 l 353 599 z "},"ė":{"ha":1021,"x_min":0,"x_max":0,"o":"m 394 947 b 513 846 394 889 431 846 b 626 947 592 846 626 889 b 513 1051 626 1004 592 1051 b 394 947 431 1051 394 1004 z m 513 -19 b 899 158 754 -19 864 104 l 725 251 b 513 163 699 213 638 163 b 288 301 468 163 301 176 l 939 301 b 943 397 939 301 943 339 b 513 776 936 661 725 776 b 64 379 358 776 64 713 b 513 -19 64 46 353 -19 z m 511 594 b 707 449 624 594 707 518 l 294 449 b 511 594 303 526 382 594 z "},"ģ":{"ha":1069,"x_min":0,"x_max":0,"o":"m 392 956 b 521 849 397 886 446 847 b 639 965 603 850 639 901 b 526 1071 639 1022 607 1071 b 603 1210 539 1106 578 1174 l 499 1210 b 392 956 442 1142 383 1053 z m 951 68 l 951 764 l 743 764 l 729 710 b 499 778 671 754 594 778 b 64 394 242 778 64 624 b 499 13 64 167 242 13 b 729 81 594 13 671 36 l 729 68 b 529 -151 729 -3 722 -147 b 249 -67 414 -154 314 -114 l 139 -214 b 533 -329 244 -290 379 -329 b 951 68 813 -329 951 -151 z m 511 188 b 285 394 383 188 285 257 b 511 601 285 529 388 601 b 738 394 639 601 738 531 b 511 188 738 260 639 188 z "},"Ģ":{"ha":1244,"x_min":0,"x_max":0,"o":"m 1161 590 l 617 590 l 617 400 l 942 400 l 942 318 b 649 179 893 239 767 179 b 289 508 451 179 289 301 b 649 836 289 732 451 836 b 951 683 775 836 885 771 l 1139 801 b 649 1033 1031 942 850 1033 b 60 508 325 1033 60 836 b 649 -18 60 179 325 -18 b 1161 247 868 -18 1074 89 z m 782 -160 b 653 -53 776 -90 728 -51 b 535 -169 571 -54 535 -106 b 647 -275 535 -226 567 -275 b 571 -414 635 -310 596 -378 l 675 -414 b 782 -160 732 -346 790 -257 z "},"Į":{"ha":531,"x_min":0,"x_max":0,"o":"m 421 -93 b 278 -65 400 -104 283 -146 b 367 0 275 -22 321 0 l 381 0 l 381 1015 l 144 1015 l 144 0 b 125 -89 132 -25 125 -56 b 190 -214 125 -139 144 -179 b 338 -257 226 -239 285 -257 b 386 -254 351 -257 371 -257 b 489 -225 433 -247 486 -226 z "},"į":{"ha":457,"x_min":0,"x_max":0,"o":"m 224 844 b 349 956 307 844 349 894 b 224 1067 349 1015 307 1067 b 101 956 143 1067 101 1015 b 224 844 101 894 143 844 z m 392 -93 b 247 -65 371 -104 254 -146 b 336 0 244 -22 292 0 l 339 0 l 339 764 l 114 764 l 114 0 b 94 -89 101 -25 94 -56 b 161 -214 94 -139 114 -179 b 307 -257 196 -239 256 -257 b 356 -254 321 -257 340 -257 b 458 -225 404 -247 456 -226 z "},"Ī":{"ha":531,"x_min":0,"x_max":0,"o":"m 508 1103 l 508 1250 l 15 1250 l 15 1103 z m 381 0 l 381 1015 l 144 1015 l 144 0 z "},"ī":{"ha":457,"x_min":0,"x_max":0,"o":"m 476 851 l 476 999 l -17 999 l -17 851 z m 114 0 l 339 0 l 339 763 l 114 763 z "},"Ķ":{"ha":1126,"x_min":0,"x_max":0,"o":"m 354 329 l 461 432 l 804 0 l 1094 0 l 624 585 l 1075 1015 l 782 1015 l 354 592 l 354 1015 l 117 1015 l 117 0 l 354 0 z m 660 -160 b 531 -53 654 -90 606 -51 b 413 -169 449 -54 413 -106 b 525 -275 413 -226 444 -275 b 449 -414 513 -310 474 -378 l 553 -414 b 660 -160 610 -346 668 -257 z "},"ķ":{"ha":929,"x_min":0,"x_max":0,"o":"m 106 1050 l 106 0 l 331 0 l 331 164 l 411 250 l 626 0 l 899 0 l 554 404 l 885 760 l 611 760 l 331 439 l 331 1050 z m 579 -160 b 450 -53 574 -90 525 -51 b 332 -169 368 -54 332 -106 b 444 -275 332 -226 364 -275 b 368 -414 432 -310 393 -378 l 472 -414 b 579 -160 529 -346 588 -257 z "},"Ļ":{"ha":957,"x_min":0,"x_max":0,"o":"m 929 190 l 354 190 l 354 1015 l 115 1015 l 115 0 l 929 0 z m 636 -160 b 507 -53 631 -90 582 -51 b 389 -169 425 -54 389 -106 b 501 -275 389 -226 421 -275 b 425 -414 489 -310 450 -378 l 529 -414 b 636 -160 586 -346 644 -257 z "},"ļ":{"ha":442,"x_min":0,"x_max":0,"o":"m 104 179 b 368 -11 104 18 210 -11 b 424 -8 394 -11 411 -10 l 424 171 b 329 267 321 165 329 226 l 329 1049 l 104 1049 z m 374 -160 b 244 -53 368 -90 319 -51 b 126 -169 163 -54 126 -106 b 239 -275 126 -226 158 -275 b 163 -414 226 -310 188 -378 l 267 -414 b 374 -160 324 -346 382 -257 z "},"Ņ":{"ha":1242,"x_min":0,"x_max":0,"o":"m 353 578 l 1110 -32 l 1110 1014 l 874 1014 l 874 428 l 117 1047 l 117 0 l 353 0 z m 769 -160 b 640 -53 764 -90 715 -51 b 522 -169 558 -54 522 -106 b 635 -275 522 -226 554 -275 b 558 -414 622 -310 583 -378 l 663 -414 b 769 -160 719 -346 778 -257 z "},"ņ":{"ha":988,"x_min":0,"x_max":0,"o":"m 583 782 b 329 696 475 782 383 747 l 315 764 l 104 764 l 104 0 l 329 0 l 329 375 b 507 599 324 556 411 599 b 678 424 597 599 678 571 l 678 0 l 903 0 l 903 451 b 583 782 903 664 815 782 z m 603 -160 b 474 -53 597 -90 549 -51 b 356 -169 392 -54 356 -106 b 468 -275 356 -226 388 -275 b 392 -414 456 -310 417 -378 l 496 -414 b 603 -160 553 -346 611 -257 z "},"Ō":{"ha":1319,"x_min":0,"x_max":0,"o":"m 899 1103 l 899 1250 l 406 1250 l 406 1103 z m 651 -19 b 1243 508 978 -19 1243 179 b 651 1035 1243 835 978 1035 b 61 508 325 1035 61 835 b 651 -19 61 179 325 -19 z m 651 835 b 1006 508 847 835 1006 732 b 651 179 1006 304 847 179 b 297 508 456 179 297 304 b 651 835 297 732 456 835 z "},"ō":{"ha":1042,"x_min":0,"x_max":0,"o":"m 758 851 l 758 999 l 265 999 l 265 851 z m 511 -18 b 961 381 757 -18 961 140 b 511 778 961 618 757 778 b 64 381 265 778 64 618 b 511 -18 64 140 265 -18 z m 511 596 b 738 381 639 596 738 521 b 511 163 738 239 639 163 b 285 381 382 163 285 236 b 511 596 285 519 386 596 z "},"Ŗ":{"ha":1093,"x_min":0,"x_max":0,"o":"m 353 0 l 353 317 l 514 317 b 776 0 604 206 688 104 l 1061 0 b 776 340 972 108 871 231 b 1000 663 910 383 1000 483 b 604 1015 1000 900 840 1015 l 117 1015 l 117 0 z m 353 507 l 353 825 l 604 825 b 765 663 744 825 765 732 b 604 507 765 540 678 507 z m 657 -160 b 528 -53 651 -90 603 -51 b 410 -169 446 -54 410 -106 b 522 -275 410 -226 442 -275 b 446 -414 510 -310 471 -378 l 550 -414 b 657 -160 607 -346 665 -257 z "},"ŗ":{"ha":636,"x_min":0,"x_max":0,"o":"m 606 575 l 606 778 b 324 663 547 779 408 765 l 310 764 l 100 764 l 100 0 l 324 0 l 324 338 b 606 575 324 569 551 579 z m 329 -160 b 200 -53 324 -90 275 -51 b 82 -169 118 -54 82 -106 b 194 -275 82 -226 114 -275 b 118 -414 182 -310 143 -378 l 222 -414 b 329 -160 279 -346 338 -257 z "},"Ū":{"ha":1231,"x_min":0,"x_max":0,"o":"m 850 1103 l 850 1250 l 357 1250 l 357 1103 z m 608 -18 b 1099 394 906 -18 1099 135 l 1099 1014 l 861 1014 l 861 394 b 608 171 861 203 701 171 b 354 394 513 171 354 203 l 354 1014 l 117 1014 l 117 394 b 608 -18 117 135 311 -18 z "},"ū":{"ha":988,"x_min":0,"x_max":0,"o":"m 729 851 l 729 999 l 236 999 l 236 851 z m 424 -18 b 678 68 532 -18 624 17 l 692 0 l 903 0 l 903 764 l 678 764 l 678 389 b 500 165 683 208 596 165 b 329 340 410 165 329 193 l 329 764 l 104 764 l 104 313 b 424 -18 104 100 192 -18 z "},"Ų":{"ha":1231,"x_min":0,"x_max":0,"o":"m 861 1014 l 861 394 b 608 171 861 203 701 171 b 354 394 513 171 354 203 l 354 1014 l 117 1014 l 117 394 b 469 -6 117 178 251 36 b 442 -93 453 -28 442 -56 b 657 -257 442 -200 549 -257 b 706 -254 671 -257 690 -257 b 808 -225 753 -247 806 -226 l 742 -93 b 646 -117 728 -100 682 -118 b 596 -56 607 -115 588 -87 b 644 -17 601 -29 625 -19 b 1099 394 921 -6 1099 146 l 1099 1014 z "},"ų":{"ha":988,"x_min":0,"x_max":0,"o":"m 925 -76 b 831 -100 913 -83 867 -101 b 781 -39 792 -99 772 -71 b 839 0 788 -8 818 0 l 903 0 l 903 764 l 678 764 l 678 389 b 500 165 683 208 596 165 b 329 340 410 165 329 193 l 329 764 l 104 764 l 104 313 b 424 -18 104 100 192 -18 b 678 68 532 -18 624 17 l 683 40 b 625 -76 653 17 625 -18 b 842 -240 625 -183 733 -240 b 889 -237 856 -240 875 -240 b 993 -208 938 -231 990 -210 z "},"Ș":{"ha":1061,"x_min":0,"x_max":0,"o":"m 189 300 l 68 139 b 563 -19 169 58 325 -19 b 999 296 822 -19 999 71 b 538 624 999 579 733 589 b 319 732 438 642 319 633 b 508 832 319 832 439 832 b 824 733 615 832 729 796 l 951 894 b 518 1031 831 976 710 1031 b 82 724 324 1031 82 965 b 518 413 82 444 379 432 b 764 290 668 392 764 382 b 560 178 764 204 690 178 b 189 300 433 178 269 239 z m 664 -160 b 535 -53 658 -90 610 -51 b 417 -169 453 -54 417 -106 b 529 -275 417 -226 449 -275 b 453 -414 517 -310 478 -378 l 557 -414 b 664 -160 614 -346 672 -257 z "},"ș":{"ha":858,"x_min":0,"x_max":0,"o":"m 444 -18 b 783 231 660 -18 783 58 b 496 461 783 442 593 446 b 299 540 411 475 299 475 b 407 597 299 592 363 597 b 640 526 499 597 579 560 l 757 668 b 414 778 650 743 544 778 b 74 536 335 778 74 774 b 400 296 74 331 288 314 b 560 232 444 289 560 297 b 442 164 560 179 510 164 b 174 246 342 164 239 206 l 57 101 b 444 -18 147 35 267 -18 z m 558 -160 b 429 -53 553 -90 504 -51 b 311 -169 347 -54 311 -106 b 424 -275 311 -226 343 -275 b 347 -414 411 -310 372 -378 l 451 -414 b 558 -160 508 -346 567 -257 z "},"Ț":{"ha":971,"x_min":0,"x_max":0,"o":"m 942 825 l 942 1015 l 67 1015 l 67 825 l 386 825 l 386 0 l 624 0 l 624 825 z m 628 -160 b 499 -53 622 -90 574 -51 b 381 -169 417 -54 381 -106 b 493 -275 381 -226 413 -275 b 417 -414 481 -310 442 -378 l 521 -414 b 628 -160 578 -346 636 -257 z "},"ț":{"ha":615,"x_min":0,"x_max":0,"o":"m 381 594 l 546 594 l 546 776 l 381 776 l 381 981 l 186 981 l 158 776 l 58 776 l 58 594 l 158 594 l 158 193 b 439 -11 158 32 265 -11 b 540 -6 471 -11 513 -8 l 540 168 l 483 168 b 381 281 372 168 381 239 z m 432 -160 b 303 -53 426 -90 378 -51 b 185 -169 221 -54 185 -106 b 297 -275 185 -226 217 -275 b 221 -414 285 -310 246 -378 l 325 -414 b 432 -160 382 -346 440 -257 z "}}}
